<svg xmlns="http://www.w3.org/2000/svg" width="1250.449" height="627.457" viewBox="0 0 1250.449 627.457">
  <g id="face" transform="translate(193 -340.7)">
    <g id="g42" transform="translate(-193 663.36)">
      <g id="g10" transform="translate(315.403 0)">
        <g id="g6">
          <path id="path2" d="M11.316,692.574A147,147,0,0,1-135.5,545.758a146.537,146.537,0,0,1,293.074.558A146.4,146.4,0,0,1,11.316,692.574Z" transform="translate(141.082 -393.918)" fill="#fefefe"/>
          <path id="path4" d="M15.9,409.665a140.955,140.955,0,1,1,0,281.909A140.921,140.921,0,0,1-125.335,550.9,141.4,141.4,0,0,1,15.9,409.665m0-11.165a152.319,152.319,0,1,0,151.84,152.4A152.476,152.476,0,0,0,15.9,398.5Z" transform="translate(136.5 -398.5)" fill="#fefefe"/>
        </g>
        <path id="path8" d="M-22.594,406.9A105.78,105.78,0,0,0-128.1,512.407,105.78,105.78,0,0,0-22.594,617.913,105.78,105.78,0,0,0,82.913,512.407,105.78,105.78,0,0,0-22.594,406.9Zm0,194.824a89.224,89.224,0,0,1-63.185-26.133,89.222,89.222,0,0,1-26.133-63.185,89.223,89.223,0,0,1,26.133-63.185,89.223,89.223,0,0,1,63.185-26.133,89.58,89.58,0,0,1,89.318,89.318,89.58,89.58,0,0,1-89.318,89.318Z" transform="translate(174.992 -360.009)"/>
      </g>
      <g id="g20" transform="translate(0 0)">
        <g id="g16">
          <path id="path12" d="M-45.742,692.116A146.4,146.4,0,0,1-192,545.858,146.52,146.52,0,0,1-45.184,399.6,146.877,146.877,0,0,1,101.632,545.858,147.374,147.374,0,0,1-45.742,692.116Z" transform="translate(197.582 -393.46)" fill="#fff"/>
          <path id="path14" d="M-40.6,409.665A141.278,141.278,0,0,1,100.632,550.34,141.4,141.4,0,0,1-40.6,691.574,140.921,140.921,0,0,1-181.835,550.9,141.4,141.4,0,0,1-40.6,409.665m0-11.165A152.594,152.594,0,0,0-193,550.9,152.594,152.594,0,0,0-40.6,703.3,152.238,152.238,0,0,0,67.208,658.708,152.236,152.236,0,0,0,111.8,550.9,153.32,153.32,0,0,0-40.6,398.5Z" transform="translate(193 -398.5)" fill="#fff"/>
        </g>
        <path id="polygon18" d="M-19.886,422.565-31.051,411.4l-68.663,69.221L-168.935,411.4-180.1,422.565l68.663,69.221L-180.1,560.449l11.165,11.723,69.221-69.221,68.663,69.221,11.165-11.723-68.663-68.663Z" transform="translate(252.113 -339.388)"/>
      </g>
      <g id="g30" transform="translate(630.807)">
        <g id="g26" transform="translate(0)">
          <path id="path22" d="M67.358,692.574a146.537,146.537,0,0,1,0-293.074,146.537,146.537,0,1,1,0,293.074Z" transform="translate(85.04 -393.917)" fill="#fff"/>
          <path id="path24" d="M72.4,409.665A140.955,140.955,0,1,1-68.835,550.9,141.278,141.278,0,0,1,72.4,409.665m0-11.165a152.071,152.071,0,1,0,152.4,151.84A152.476,152.476,0,0,0,72.4,398.5Z" transform="translate(80 -398.5)" fill="#fff"/>
        </g>
        <path id="path28" d="M77.025,411.4H-67V571.056H92.655V411.4Zm0,144.583H-51.369V427.589H77.025V555.983Z" transform="translate(139.571 -339.387)"/>
      </g>
      <g id="g40" transform="translate(946.21)">
        <g id="g36" transform="translate(0)">
          <path id="path32" d="M124.216,692.8A146.676,146.676,0,1,1,271.032,546.546,146.995,146.995,0,0,1,124.216,692.8Z" transform="translate(27.624 -394.147)" fill="#fff"/>
          <path id="path34" d="M128.9,409.665A140.955,140.955,0,1,1-12.335,550.9,140.955,140.955,0,0,1,128.9,409.665m0-11.165a152.119,152.119,0,1,0,151.84,152.4A152.119,152.119,0,0,0,128.9,398.5Z" transform="translate(23.5 -398.5)" fill="#fff"/>
        </g>
        <path id="path38" d="M173.667,560.273,84.35,406.2-4.968,560.273-13.9,575.9H182.6Zm-88.759,0h-70.9l70.9-122.254,70.9,122.254Z" transform="translate(67.49 -363.216)"/>
      </g>
    </g>
    <g id="g84" transform="translate(-193 340.7)">
      <g id="g52" transform="translate(315.403)">
        <g id="g48">
          <path id="path46" d="M15.9,351.865A140.921,140.921,0,0,1,156.574,493.1,140.447,140.447,0,0,1,15.9,633.774a140.955,140.955,0,1,1,0-281.909m0-11.165A152.594,152.594,0,0,0-136.5,493.1a152.12,152.12,0,1,0,304.239,0A152.477,152.477,0,0,0,15.9,340.7Z" transform="translate(136.5 -340.7)" fill="red"/>
          <path id="path44" d="M11.316,634.774A147,147,0,0,1-135.5,487.958,146.52,146.52,0,0,1,11.316,341.7,146.4,146.4,0,0,1,157.574,487.958,147.24,147.24,0,0,1,11.316,634.774Z" transform="translate(141.082 -336.118)" fill="red"/>
        </g>
        <path id="path50" d="M-22.593,349.1A105.78,105.78,0,0,0-128.1,454.607,105.78,105.78,0,0,0-22.593,560.113,105.78,105.78,0,0,0,82.913,454.607,105.78,105.78,0,0,0-22.593,349.1Zm0,194.824a89.223,89.223,0,0,1-63.185-26.133,89.223,89.223,0,0,1-26.133-63.185,89.223,89.223,0,0,1,26.133-63.185,89.223,89.223,0,0,1,63.185-26.133,89.58,89.58,0,0,1,89.318,89.318,89.58,89.58,0,0,1-89.318,89.318Z" transform="translate(174.992 -302.208)" fill="#fff"/>
      </g>
      <g id="g62">
        <g id="g58">
          <path id="path56" d="M-40.6,351.865A141.4,141.4,0,0,1,100.632,493.1,140.921,140.921,0,0,1-40.6,633.774,141.278,141.278,0,0,1-181.835,493.1,141.4,141.4,0,0,1-40.6,351.865m0-11.165a152.237,152.237,0,0,0-107.81,44.589A152.238,152.238,0,0,0-193,493.1,152.594,152.594,0,0,0-40.6,645.5,152.234,152.234,0,0,0,67.208,600.908,152.236,152.236,0,0,0,111.8,493.1,152.957,152.957,0,0,0-40.6,340.7Z" transform="translate(193 -340.7)" fill="#515151"/>
          <path id="path54" d="M-45.742,634.774A146.76,146.76,0,0,1-192,488.516,147.24,147.24,0,0,1-45.742,341.7,147.374,147.374,0,0,1,101.074,488.516,146.52,146.52,0,0,1-45.742,634.774Z" transform="translate(197.582 -336.118)" fill="#515151"/>
        </g>
        <path id="polygon60" d="M-19.886,364.765-31.051,353.6l-68.663,68.663L-168.935,353.6-180.1,364.765l68.663,68.663L-180.1,502.649l11.165,11.165,69.221-68.663,68.663,68.663,11.165-11.165-68.663-69.221Z" transform="translate(252.113 -281.588)" fill="#fff"/>
      </g>
      <g id="g72" transform="translate(630.807 3.908)">
        <g id="g68" transform="translate(0)">
          <path id="path66" d="M72.4,352.565A141.4,141.4,0,0,1,213.632,493.8,140.564,140.564,0,0,1,72.4,634.474a140.955,140.955,0,1,1,0-281.909m0-11.165A152.594,152.594,0,0,0-80,493.8,151.762,151.762,0,0,0,72.4,645.639,152.12,152.12,0,0,0,224.8,493.8,152.957,152.957,0,0,0,72.4,341.4Z" transform="translate(80 -341.4)" fill="#0019ff"/>
          <path id="path64" d="M67.358,635.474A146.4,146.4,0,0,1-78.9,489.216,147.24,147.24,0,0,1,67.358,342.4a146.537,146.537,0,1,1,0,293.074Z" transform="translate(85.041 -336.818)" fill="#0019ff"/>
        </g>
        <path id="path70" d="M77.025,354.2H-67V513.855H92.655V354.2Zm0,144.583H-51.369V370.389H77.025V498.783Z" transform="translate(139.571 -282.746)" fill="#fff"/>
      </g>
      <g id="g82" transform="translate(946.21 7.257)">
        <g id="g78" transform="translate(0)">
          <path id="path76" d="M128.9,353.165A141.234,141.234,0,1,1-12.335,494.4,141.4,141.4,0,0,1,128.9,353.165m0-11.165a152.259,152.259,0,1,0,151.84,152.4A152.594,152.594,0,0,0,128.9,342Z" transform="translate(23.5 -342)" fill="#1f0"/>
          <path id="path74" d="M124.216,636.532A146.816,146.816,0,1,1,271.032,490.274,146.816,146.816,0,0,1,124.216,636.532Z" transform="translate(27.624 -337.876)" fill="#1f0"/>
        </g>
        <path id="path80" d="M173.667,503.773,84.35,349.7-4.968,503.773-13.9,519.4H182.6Zm-88.759,0h-70.9l70.9-122.254,70.9,122.254Z" transform="translate(67.491 -306.716)" fill="#fff"/>
      </g>
    </g>
  </g>
</svg>
