<svg xmlns="http://www.w3.org/2000/svg" width="1840.926" height="605.06" viewBox="0 0 1840.926 605.06">
  <g id="sticks" transform="translate(816 -494)">
    <g id="g12" transform="translate(-816 494)">
      <g id="g8">
        <path id="path4" d="M-521.625,1081.249c-161.563,0-292.875-131.311-292.875-292.875S-683.189,495.5-521.625,495.5s292.875,131.311,292.875,292.875S-360.062,1081.249-521.625,1081.249Z" transform="translate(824.155 -485.845)" fill="red"/>
        <path id="path6" d="M-513.47,513.311c156.415,0,283.22,126.805,283.22,283.219s-126.805,283.219-283.22,283.219S-796.689,952.944-796.689,796.53-669.884,513.311-513.47,513.311m0-19.311A302.179,302.179,0,0,0-816,796.53a302.179,302.179,0,0,0,302.53,302.53A302.179,302.179,0,0,0-210.94,796.53,302.179,302.179,0,0,0-513.47,494Z" transform="translate(816 -494)" fill="red"/>
      </g>
      <circle id="circle10" cx="175.725" cy="175.725" r="175.725" transform="translate(126.805 126.805)" fill="red"/>
    </g>
    <g id="g28" transform="translate(419.867 494)">
      <g id="g18">
        <path id="path14" d="M-329.625,1081.249c-161.564,0-292.875-131.311-292.875-292.875S-491.189,495.5-329.625,495.5-36.751,626.811-36.751,788.375-168.062,1081.249-329.625,1081.249Z" transform="translate(632.155 -485.845)" fill="red"/>
        <path id="path16" d="M-321.47,513.311c156.414,0,283.219,126.805,283.219,283.219s-126.805,283.219-283.219,283.219S-604.69,952.944-604.69,796.53-477.885,513.311-321.47,513.311m0-19.311A302.179,302.179,0,0,0-624,796.53a302.179,302.179,0,0,0,302.53,302.53A302.179,302.179,0,0,0-18.94,796.53,302.179,302.179,0,0,0-321.47,494Z" transform="translate(624 -494)" fill="red"/>
      </g>
      <circle id="circle20" cx="175.725" cy="175.725" r="175.725" transform="translate(126.805 126.805)" fill="red"/>
      <g id="g26" transform="translate(170.576 215.633)">
        <path id="path22" d="M-596.213,527.5h81.1c37.333,0,56,17.379,56,45.7,0,32.827-22.529,41.2-28.322,43.127v.644c10.3,1.287,25.1,9.011,25.1,36.046,0,19.954,2.575,37.977,9.011,45.058H-485.5c-4.506-7.08-4.506-16.736-4.506-25.1,0-30.9-6.437-45.058-34.115-45.058h-43.77v70.162H-597.5V527.5Zm29.609,77.885h48.919q28.966,0,28.966-27.035c0-21.885-14.161-25.747-29.609-25.747H-566.6Z" transform="translate(597.5 -527.5)" fill="#fff"/>
        <path id="path24" d="M-526.011,600.236c18.023.644,36.69-5.793,36.69-26.391,0-14.161-10.943-23.816-25.747-23.816-18.667,0-28.322,16.736-27.678,34.115h-27.035c1.288-32.184,21.885-56.644,55.356-56.644,25.747,0,52.782,14.8,52.782,44.414,0,16.736-7.08,30.253-23.816,35.4v.644c19.311,3.862,30.253,19.954,30.253,41.839,0,31.541-27.678,50.851-59.219,50.851-38.621,0-57.931-23.172-58.575-57.931h27.035c-.644,19.954,10.3,35.4,31.54,35.4,18.023,0,32.184-10.943,32.184-29.609,0-25.747-21.885-28.966-43.77-28.322V600.236Z" transform="translate(730.701 -527.5)" fill="#fff"/>
      </g>
    </g>
    <g id="g44" transform="translate(-198.067 494)">
      <g id="g34">
        <path id="path30" d="M-425.625,1081.249c-161.564,0-292.875-131.311-292.875-292.875S-587.189,495.5-425.625,495.5s292.875,131.311,292.875,292.875S-264.062,1081.249-425.625,1081.249Z" transform="translate(728.155 -485.845)" fill="red"/>
        <path id="path32" d="M-417.47,513.311c156.414,0,283.219,126.805,283.219,283.219s-126.805,283.219-283.219,283.219S-700.69,952.944-700.69,796.53s126.805-283.219,283.22-283.219m0-19.311A302.18,302.18,0,0,0-720,796.53a302.18,302.18,0,0,0,302.53,302.53A302.179,302.179,0,0,0-114.94,796.53,302.179,302.179,0,0,0-417.47,494Z" transform="translate(720 -494)" fill="red"/>
      </g>
      <circle id="circle36" cx="175.725" cy="175.725" r="175.725" transform="translate(126.805 126.805)" fill="red"/>
      <g id="g42" transform="translate(187.311 215.633)">
        <path id="path38" d="M-690.9,527.5h29.609V671.685h86.253v25.747H-690.9Z" transform="translate(690.9 -527.5)" fill="#fff"/>
        <path id="path40" d="M-624.411,600.236c18.023.644,36.69-5.793,36.69-26.391,0-14.161-10.943-23.816-25.748-23.816-18.667,0-28.322,16.736-27.678,34.115h-27.035c1.288-32.184,21.886-56.644,55.356-56.644,25.748,0,52.782,14.8,52.782,44.414,0,16.736-7.081,30.253-23.816,35.4v.644c19.311,3.862,30.253,19.954,30.253,41.839,0,31.541-27.678,50.851-59.219,50.851-38.621,0-57.931-23.172-58.575-57.931h27.035c-.644,19.954,10.3,35.4,31.541,35.4,18.023,0,32.184-10.943,32.184-29.609,0-25.747-21.885-28.966-43.77-28.322V600.236Z" transform="translate(796.918 -527.5)" fill="#fff"/>
      </g>
    </g>
  </g>
</svg>
