<svg xmlns="http://www.w3.org/2000/svg" width="3021.377" height="1371.706" viewBox="0 0 3021.377 1371.706">
  <g id="triggers" transform="translate(205.1 -351.2)">
    <g id="g16" transform="translate(1320.695 351.2)">
      <g id="g6">
        <path id="path2" d="M1391.481,1722.905s-494-48.342-764.408-48.342S-104.1,1710.819-104.1,1710.819s46.831-675.278,72.513-785.558S84.736,603.485,223.719,503.78,405,351.2,568.156,351.2s383.715,96.684,522.7,323.287S1391.481,1722.905,1391.481,1722.905Z" transform="translate(104.1 -351.2)" fill="red"/>
        <path id="path4" d="M-96.547,496.47S297.743,430,643.691,430c344.437,0,723.62,66.47,723.62,66.47,15.107,71,24.171,114.813,24.171,114.813s-494-48.342-764.408-48.342S-104.1,599.2-104.1,599.2-101.079,558.409-96.547,496.47Z" transform="translate(104.1 760.423)" fill="red"/>
      </g>
      <g id="g14" transform="translate(453.207 882.242)" opacity="0.08">
        <g id="g10" transform="translate(231.135)">
          <path id="path8" d="M19.756,519.88c-31.724,25.682-48.342,39.278-48.342,39.278-18.128,18.128-28.7,40.789-30.214,67.981H89.247V587.861H-4.415c4.532-7.554,15.107-18.128,31.724-28.7Q59.034,538.764,68.1,527.434c13.6-15.107,19.639-31.725,19.639-49.853,0-21.149-7.553-37.767-21.15-49.853S34.863,409.6,13.713,409.6c-46.831,0-71,25.682-71,75.534H-16.5q0-40.788,31.724-40.789c19.639,0,30.214,10.575,30.214,31.725C46.948,492.688,37.884,506.284,19.756,519.88Z" transform="translate(58.8 -409.6)" fill="red"/>
        </g>
        <path id="path12" d="M-28.779,539.719H16.541c22.66,0,34.746,9.064,36.257,28.7,1.511,18.128,3.021,37.767,4.532,57.406h49.853v-6.042c-7.553-3.021-10.575-10.575-10.575-22.661a42.514,42.514,0,0,1,1.511-12.085V574.465c0-25.682-9.064-43.81-27.192-52.874,21.15-7.554,33.235-24.171,33.235-51.363,0-19.639-6.043-34.746-19.639-45.321C72.437,414.332,55.819,409.8,36.18,409.8H-74.1V625.828h45.321Zm0-93.663h55.9c21.15,0,31.724,9.064,31.724,28.7s-12.086,28.7-34.746,28.7H-28.779Z" transform="translate(74.1 -406.779)" fill="red"/>
      </g>
    </g>
    <g id="g32" transform="translate(-205.1 351.2)">
      <g id="g22">
        <path id="path18" d="M-205,1722.905s493.995-48.342,764.408-48.342,729.662,36.256,729.662,36.256-46.831-675.278-72.513-785.558S1100.235,603.485,961.251,503.78,781.479,351.2,618.325,351.2,234.61,447.884,95.627,674.487-205,1722.905-205,1722.905Z" transform="translate(206.511 -351.2)" fill="red"/>
        <path id="path20" d="M1282.928,496.47S888.639,430,542.691,430c-344.437,0-723.62,66.47-723.62,66.47-15.107,71-24.171,114.813-24.171,114.813s494-48.342,764.408-48.342S1290.482,599.2,1290.482,599.2,1288.971,558.409,1282.928,496.47Z" transform="translate(205.1 760.423)" fill="red"/>
      </g>
      <g id="g30" transform="translate(694.917 882.242)" opacity="0.08">
        <g id="g26" transform="translate(202.432)">
          <path id="path24" d="M-67.144,519.88c-31.725,25.682-48.342,39.278-48.342,39.278-18.128,18.128-28.7,40.789-30.214,67.981H.837V587.861H-92.826c4.532-7.554,15.107-18.128,31.725-28.7q31.724-20.394,40.789-31.725c13.6-15.107,19.639-31.725,19.639-49.853,0-21.149-7.553-37.767-21.149-49.853S-53.548,409.6-74.7,409.6c-46.832,0-71,25.682-71,75.534h40.789q0-40.788,31.725-40.789c19.639,0,30.214,10.575,30.214,31.725C-41.463,492.688-49.016,506.284-67.144,519.88Z" transform="translate(145.7 -409.6)" fill="red"/>
        </g>
        <path id="polygon28" d="M-6.521,586.451H-113.779V409.7H-159.1V625.729H-6.521Z" transform="translate(159.1 -408.189)" fill="red"/>
      </g>
    </g>
  </g>
</svg>
