<svg xmlns="http://www.w3.org/2000/svg" xmlns:xlink="http://www.w3.org/1999/xlink" width="807.02" height="600.037" viewBox="0 0 807.02 600.037">
  <defs>
    <clipPath id="clip-path">
      <rect width="807.02" height="600.037" fill="none"/>
    </clipPath>
  </defs>
  <g id="base" clip-path="url(#clip-path)">
    <g id="base-2" data-name="base" transform="translate(-96.515 -96.6)">
      <g id="g129" transform="translate(97 210.555)">
        <g id="g127">
          <g id="g125">
            <path id="path91" d="M898.345,515.309c-2.9-15.48-17.7-102.369-32-144.415-9.4-27.665-13.1-52.932-17-64.817-12-35.654-33-65.616-33-65.616s-9.5-13.083-10.1-16.279c-.6-3.3-4.7-8.589-4.7-8.589s-17.4-5.693-62.3-5.693-53.7,4.994-53.7,4.994a22.508,22.508,0,0,1-5.9,4.794c-3.5,1.8-11.7,1.7-11.7,1.7h-33.4a1.009,1.009,0,0,0-.9.3,5.288,5.288,0,0,0-.6,2H366.915a7.116,7.116,0,0,0-.6-2,1.062,1.062,0,0,0-.9-.3h-33.4s-8.2.2-11.7-1.7a20.507,20.507,0,0,1-5.9-4.794s-8.8-4.994-53.7-4.994c-44.8,0-62.3,5.693-62.3,5.693s-4.1,5.293-4.7,8.589-10.1,16.279-10.1,16.279-21,29.962-33,65.616c-4,11.885-7.7,37.152-17,64.817-14.3,42.046-29.1,128.935-32,144.415-4.3,23.17-4.6,90.085-4.6,90.085s4.5,53.332,36.2,74.8,56.7,13.982,56.7,13.982,33.1-8.19,57.8-41.846,56.6-129.035,56.6-129.035a24.484,24.484,0,0,1,5.7-5.293,15.8,15.8,0,0,1,6.3-2.6l183.71.1,183.71-.1a15.8,15.8,0,0,1,6.3,2.6,24.482,24.482,0,0,1,5.7,5.293s31.9,95.278,56.6,129.035,57.8,41.846,57.8,41.846,25,7.49,56.7-13.982,36.2-74.8,36.2-74.8S902.745,538.479,898.345,515.309Z" transform="translate(-97 -209.9)" stroke="#6eebff" stroke-width="1"/>
            <path id="path97" d="M449.088,457.544a76.944,76.944,0,1,0-153.888,0,13.471,13.471,0,0,0,.1,2.012c0,.7-.1,1.308-.1,2.012a76.944,76.944,0,0,0,153.888,0,13.483,13.483,0,0,0-.1-2.012C448.988,458.852,449.088,458.148,449.088,457.544Z" transform="translate(-97.256 -210.695)" stroke="#6eebff" stroke-width="1"/>
            <circle id="circle99" cx="73.424" cy="73.424" r="73.424" transform="translate(201.455 169.465)" stroke="#6eebff" stroke-width="1"/>
            <circle id="circle101" cx="51.799" cy="51.799" r="51.799" transform="translate(223.024 191.09)"/>
            <path id="path103" d="M705.688,457.544a76.944,76.944,0,1,0-153.888,0,13.467,13.467,0,0,0,.1,2.012c0,.7-.1,1.308-.1,2.012a76.944,76.944,0,0,0,153.888,0,13.475,13.475,0,0,0-.1-2.012A14.162,14.162,0,0,0,705.688,457.544Z" transform="translate(-97.587 -210.695)" stroke="#6eebff" stroke-width="1"/>
            <circle id="circle105" cx="73.424" cy="73.424" r="73.424" transform="translate(457.743 169.465)" stroke="#6eebff" stroke-width="1"/>
            <circle id="circle107" cx="51.799" cy="51.799" r="51.799" transform="translate(479.423 191.09)" opacity="0.1"/>
            <circle id="circle111" cx="94.847" cy="94.847" r="94.847" transform="translate(556.605 37.919)" stroke="#6eebff" stroke-width="1"/>
            <g id="g123" transform="translate(59.745 37.919)">
              <circle id="circle113" cx="94.847" cy="94.847" r="94.847" transform="translate(0 0)" stroke="#6eebff" stroke-width="1"/>
              <path id="path115" d="M327.411,351.315l9.555-8.952a1.158,1.158,0,0,0,0-1.71l-9.555-8.952a1.122,1.122,0,0,0-1.911.8v17.9a1.154,1.154,0,0,0,1.911.914Z" transform="translate(-155.418 -247.114)" fill="#6eebff"/>
              <path id="path117" d="M242.007,266.968h17.9a1.122,1.122,0,0,0,.8-1.911l-8.952-9.555a1.158,1.158,0,0,0-1.71,0l-8.952,9.555a1.178,1.178,0,0,0,.914,1.911Z" transform="translate(-155.91 -247.556)" fill="#6eebff"/>
              <path id="path119" d="M174.557,331.7,165,340.654a1.158,1.158,0,0,0,0,1.71l9.555,8.952a1.122,1.122,0,0,0,1.911-.8v-17.9a1.132,1.132,0,0,0-1.909-.916Z" transform="translate(-156.352 -247.114)" fill="#6eebff"/>
              <path id="path121" d="M259.91,415.9h-17.9a1.122,1.122,0,0,0-.8,1.911l8.952,9.555a1.158,1.158,0,0,0,1.71,0l8.952-9.555a1.178,1.178,0,0,0-.914-1.911Z" transform="translate(-155.91 -246.623)" fill="#6eebff"/>
            </g>
          </g>
        </g>
      </g>
      <g id="g191" transform="translate(322.297 238.839)">
        <g id="g155">
          <g id="g153">
            <g id="path149" transform="translate(-323.3 -238.9)">
              <path d="M 337.5824890136719 285.3705139160156 C 333.9010620117188 285.3705139160156 330.4399719238281 283.9368896484375 327.8367919921875 281.3337097167969 C 325.2336120605469 278.7305297851562 323.7999877929688 275.2694396972656 323.7999877929688 271.5880126953125 L 323.7999877929688 253.1820068359375 C 323.8138122558594 249.5075531005859 325.2530822753906 246.0512542724609 327.8526611328125 243.4516754150391 C 330.4236755371094 240.8806457519531 333.8324584960938 239.4445953369141 337.4635620117188 239.3999786376953 L 337.5823669433594 239.3999938964844 L 337.5919799804688 239.3999938964844 C 339.40966796875 239.3999938964844 341.1828918457031 239.752685546875 342.8623657226562 240.4483184814453 C 344.5419006347656 241.1439666748047 346.0452575683594 242.1483764648438 347.3306274414062 243.4336853027344 C 348.6172180175781 244.7201843261719 349.6223754882812 246.2249298095703 350.3181457519531 247.9060974121094 C 351.013916015625 249.5872650146484 351.3661193847656 251.3622283935547 351.364990234375 253.1817016601562 L 351.364990234375 271.5880126953125 C 351.364990234375 275.2694396972656 349.9313659667969 278.7305297851562 347.3281860351562 281.3337097167969 C 344.7250061035156 283.9368896484375 341.263916015625 285.3705139160156 337.5824890136719 285.3705139160156 Z M 337.5828857421875 240.1089782714844 C 330.3767700195312 240.1112670898438 324.5122985839844 245.9757385253906 324.510009765625 253.1818542480469 L 324.509521484375 271.5889892578125 C 324.509521484375 278.7974853515625 330.3740539550781 284.6619873046875 337.58251953125 284.6619873046875 C 341.0744934082031 284.6619873046875 344.3573608398438 283.3021545410156 346.8264770507812 280.8329772949219 C 349.2955932617188 278.3638000488281 350.6552734375 275.0808715820312 350.6549987792969 271.5889587402344 L 350.655029296875 253.1829986572266 C 350.6528625488281 246.3712463378906 345.4124755859375 240.7583923339844 338.7525329589844 240.1623077392578 L 338.8062744140625 240.109619140625 L 337.5828857421875 240.1089782714844 Z" stroke="none"/>
              <path d="M 337.5830078125 238.8989868164062 L 337.58203125 238.8999938964844 C 337.5855102539062 238.8999938964844 337.5885620117188 238.8999938964844 337.592041015625 238.8999938964844 C 341.3769836425781 238.8999938964844 345.0075073242188 240.4036254882812 347.6841735839844 243.0801391601562 C 350.3633117675781 245.7590637207031 351.8673706054688 249.3932800292969 351.864990234375 253.1820068359375 L 351.864990234375 271.5880126953125 C 351.864990234375 279.4760131835938 345.4704895019531 285.8705139160156 337.5824890136719 285.8705139160156 C 329.6944885253906 285.8705139160156 323.2999877929688 279.4760131835938 323.2999877929688 271.5880126953125 L 323.2999877929688 253.1820068359375 C 323.32958984375 245.3060302734375 329.7070007324219 238.9286193847656 337.5830078125 238.8989868164062 Z M 337.58251953125 284.1619873046875 C 344.5263977050781 284.1619873046875 350.155517578125 278.5328674316406 350.1549987792969 271.5889892578125 L 350.155029296875 253.1829833984375 C 350.15283203125 246.2400207519531 344.5249938964844 240.6121826171875 337.5830383300781 240.6089782714844 C 330.6400451660156 240.6111755371094 325.01220703125 246.239013671875 325.010009765625 253.1820068359375 L 325.009521484375 271.5889892578125 C 325.009521484375 278.5328674316406 330.6386413574219 284.1619873046875 337.58251953125 284.1619873046875 Z" stroke="none" fill="#6eebff"/>
            </g>
            <g id="path151" transform="translate(-323.29 -238.89)">
              <path d="M 337.572509765625 283.6520080566406 C 334.34765625 283.6520080566406 331.3158874511719 282.3962097167969 329.0356750488281 280.1159057617188 C 326.7554321289062 277.8356018066406 325.499755859375 274.8038330078125 325.5 271.5790405273438 L 325.5000305175781 253.1729888916016 C 325.5010375976562 249.94873046875 326.7572937011719 246.9172973632812 329.0372924804688 244.6372833251953 C 331.3173217773438 242.3572540283203 334.3487548828125 241.1010437011719 337.5731506347656 241.1000061035156 C 340.7970581054688 241.1013031005859 343.8282775878906 242.3576507568359 346.1080627441406 244.6376342773438 C 348.3878479003906 246.9176025390625 349.6439819335938 249.9489135742188 349.6449890136719 253.1731719970703 L 349.6455078125 271.5790100097656 C 349.6455078125 274.8038330078125 348.3897094726562 277.8356323242188 346.1094055175781 280.1159057617188 C 343.8291320800781 282.3962097167969 340.7973327636719 283.6520080566406 337.572509765625 283.6520080566406 Z" stroke="none"/>
              <path d="M 337.5729370117188 241.6000061035156 C 334.4822082519531 241.6011352539062 331.5763244628906 242.8053588867188 329.3908386230469 244.9908447265625 C 327.2052307128906 247.1764526367188 326.0010070800781 250.0823669433594 326.0000305175781 253.1729736328125 L 326 271.5790710449219 C 325.9997863769531 274.6702880859375 327.2034301757812 277.5765075683594 329.3892211914062 279.7623596191406 C 331.5750122070312 281.9482116699219 334.4812316894531 283.1520080566406 337.572509765625 283.1520080566406 C 340.6637573242188 283.1520080566406 343.5700073242188 281.9482116699219 345.755859375 279.7623596191406 C 347.9417114257812 277.5765075683594 349.1455078125 274.6702880859375 349.1455078125 271.5790405273438 L 349.1449890136719 253.17333984375 C 349.1440124511719 250.0825805664062 347.9399108886719 247.1767578125 345.7544860839844 244.9911499023438 C 343.5692138671875 242.8057250976562 340.6634826660156 241.6013793945312 337.5729370117188 241.6000061035156 M 337.572998046875 240.6000061035156 L 337.572998046875 240.6000366210938 C 344.5155639648438 240.602783203125 350.1427917480469 246.2304382324219 350.1449890136719 253.1730041503906 L 350.1455078125 271.5790100097656 C 350.1455078125 278.5228881835938 344.5163879394531 284.1520080566406 337.572509765625 284.1520080566406 C 330.6286315917969 284.1520080566406 324.99951171875 278.5228881835938 325 271.5790100097656 L 325.0000305175781 253.1729736328125 C 325.0022277832031 246.2300415039062 330.6300659179688 240.6022338867188 337.572998046875 240.6000061035156 Z" stroke="none" fill="#6eebff"/>
            </g>
          </g>
        </g>
        <g id="g163" transform="translate(326.887)">
          <g id="g161">
            <g id="path157" transform="translate(-648.3 -238.9)">
              <path d="M 662.5824584960938 285.3705139160156 C 658.9010009765625 285.3705139160156 655.43994140625 283.9368896484375 652.8367919921875 281.3337097167969 C 650.233642578125 278.7305297851562 648.7999877929688 275.2694396972656 648.7999877929688 271.5880126953125 L 648.7999877929688 253.1820068359375 C 648.8138427734375 249.5077514648438 650.2529907226562 246.0515747070312 652.8523559570312 243.4520263671875 C 655.4256591796875 240.8785095214844 658.8387451171875 239.4420166015625 662.4736328125 239.3998565673828 L 662.5823364257812 239.3999938964844 L 662.5919799804688 239.3999938964844 C 664.40966796875 239.3999938964844 666.182861328125 239.752685546875 667.8623046875 240.4483032226562 C 669.5418701171875 241.1439361572266 671.0452270507812 242.1483459472656 672.3306274414062 243.4336547851562 C 673.6171875 244.7201690673828 674.6223754882812 246.2249145507812 675.318115234375 247.9060821533203 C 676.013916015625 249.5872650146484 676.3661499023438 251.3622283935547 676.364990234375 253.1817016601562 L 676.3649291992188 271.5880126953125 C 676.3649291992188 275.2694396972656 674.9312744140625 278.7305297851562 672.328125 281.3337097167969 C 669.7249755859375 283.9368896484375 666.263916015625 285.3705139160156 662.5824584960938 285.3705139160156 Z M 662.581787109375 240.1089782714844 C 655.3756713867188 240.1112976074219 649.51123046875 245.9757537841797 649.5089721679688 253.1818542480469 L 649.5089721679688 271.5889892578125 C 649.5112915039062 278.7952270507812 655.3757934570312 284.65966796875 662.581787109375 284.6619873046875 C 669.7882080078125 284.6596984863281 675.6527099609375 278.7952575683594 675.6549682617188 271.5891418457031 L 675.655029296875 253.1829986572266 C 675.65283203125 246.144287109375 670.0571899414062 240.3857116699219 663.0819702148438 240.1195831298828 L 663.0819702148438 240.1098480224609 L 662.581787109375 240.1089782714844 Z" stroke="none"/>
              <path d="M 662.5819702148438 238.8989868164062 L 662.5819702148438 238.8999938964844 C 662.58544921875 238.8999938964844 662.5885009765625 238.8999938964844 662.5919799804688 238.8999938964844 C 666.3768920898438 238.8999938964844 670.0074462890625 240.4035949707031 672.6841430664062 243.080078125 C 675.36328125 245.759033203125 676.8673706054688 249.3932495117188 676.864990234375 253.1820068359375 L 676.8649291992188 271.5880126953125 C 676.8649291992188 279.4760131835938 670.470458984375 285.8705139160156 662.5824584960938 285.8705139160156 C 654.6944580078125 285.8705139160156 648.2999877929688 279.4760131835938 648.2999877929688 271.5880126953125 L 648.2999877929688 253.1820068359375 C 648.3296508789062 245.3064270019531 654.7064208984375 238.92919921875 662.5819702148438 238.8989868164062 Z M 662.5819702148438 284.1619873046875 C 669.5249633789062 284.1597900390625 675.1527709960938 278.5319519042969 675.1549682617188 271.5889892578125 L 675.155029296875 253.1829833984375 C 675.15283203125 246.2400207519531 669.5249633789062 240.6121826171875 662.5819702148438 240.6090087890625 L 662.5819702148438 240.6089782714844 C 655.6390380859375 240.6112060546875 650.0111694335938 246.239013671875 650.0089721679688 253.1820068359375 L 650.0089721679688 271.5889892578125 C 650.01123046875 278.5319519042969 655.6390380859375 284.1597595214844 662.5819702148438 284.1619873046875 Z" stroke="none" fill="#6eebff"/>
            </g>
            <g id="path159" transform="translate(-648.29 -238.89)">
              <path d="M 662.572509765625 283.6520080566406 C 659.34765625 283.6520080566406 656.31591796875 282.3962097167969 654.0357055664062 280.1159057617188 C 651.7554321289062 277.8356018066406 650.499755859375 274.8038024902344 650.5 271.5790405273438 L 650.5 253.1729888916016 C 650.5010375976562 249.94873046875 651.7572631835938 246.9172973632812 654.0372924804688 244.6372833251953 C 656.3173217773438 242.3572692871094 659.3487548828125 241.1010437011719 662.5731811523438 241.1000061035156 C 665.7970581054688 241.1012878417969 668.8282470703125 242.3576202392578 671.1080322265625 244.6376037597656 C 673.3878784179688 246.9175872802734 674.6439819335938 249.9489135742188 674.64501953125 253.1731719970703 L 674.6455078125 271.5790100097656 C 674.6455078125 274.8038024902344 673.3897094726562 277.8356323242188 671.109375 280.1159057617188 C 668.8291015625 282.3962097167969 665.7973022460938 283.6520080566406 662.572509765625 283.6520080566406 Z" stroke="none"/>
              <path d="M 662.5729370117188 241.6000061035156 C 659.4822387695312 241.6011352539062 656.5763549804688 242.8053588867188 654.390869140625 244.9908447265625 C 652.2052001953125 247.1764526367188 651.0010375976562 250.0823669433594 651 253.1729736328125 L 651 271.5790710449219 C 650.999755859375 274.6702880859375 652.2034301757812 277.5765075683594 654.3892211914062 279.7623596191406 C 656.5750122070312 281.9482116699219 659.4812622070312 283.1520080566406 662.572509765625 283.1520080566406 C 665.6637573242188 283.1520080566406 668.5700073242188 281.9482116699219 670.755859375 279.7623596191406 C 672.9417114257812 277.5764770507812 674.1455078125 274.6702880859375 674.1455078125 271.5790405273438 L 674.14501953125 253.17333984375 C 674.1439819335938 250.0825500488281 672.9398803710938 247.1767272949219 670.7545166015625 244.9911499023438 C 668.5692138671875 242.8056945800781 665.6635131835938 241.6013793945312 662.5729370117188 241.6000061035156 M 662.572998046875 240.6000061035156 C 669.5155639648438 240.6027526855469 675.1427612304688 246.2304077148438 675.14501953125 253.1730041503906 L 675.1455078125 271.5790100097656 C 675.1455078125 278.5228881835938 669.516357421875 284.1520080566406 662.572509765625 284.1520080566406 C 655.628662109375 284.1520080566406 649.99951171875 278.5228881835938 650 271.5790100097656 L 650 253.1729736328125 C 650.0022583007812 246.2300415039062 655.6300659179688 240.6022338867188 662.572998046875 240.6000061035156 Z" stroke="none" fill="#6eebff"/>
            </g>
          </g>
        </g>
      </g>
      <g id="g221" transform="translate(467.133 388.431)">
        <g id="g207">
          <circle id="circle193" cx="4.124" cy="4.124" r="4.124" transform="translate(28.766 21.021)" fill="#fff"/>
          <circle id="circle195" cx="4.124" cy="4.124" r="4.124" transform="translate(28.766 0)" fill="#fff"/>
          <circle id="circle197" cx="4.124" cy="4.124" r="4.124" transform="translate(21.826 10.259)" fill="#fff"/>
          <circle id="circle199" cx="4.124" cy="4.124" r="4.124" transform="translate(7.041 10.259)" fill="#fff"/>
          <circle id="circle201" cx="4.124" cy="4.124" r="4.124" transform="translate(14.383 21.021)" fill="#fff"/>
          <circle id="circle203" cx="4.124" cy="4.124" r="4.124" transform="translate(14.383 0)" fill="#fff"/>
          <circle id="circle205" cx="4.124" cy="4.124" r="4.124" transform="translate(0 0)" fill="#fff"/>
        </g>
        <g id="g219" transform="translate(35.706)">
          <circle id="circle209" cx="4.124" cy="4.124" r="4.124" transform="translate(0 10.259)" fill="#fff"/>
          <circle id="circle211" cx="4.124" cy="4.124" r="4.124" transform="translate(14.785 10.259)" fill="#fff"/>
          <circle id="circle213" cx="4.124" cy="4.124" r="4.124" transform="translate(7.342 21.021)" fill="#fff"/>
          <circle id="circle215" cx="4.124" cy="4.124" r="4.124" transform="translate(7.342 0)" fill="#fff"/>
          <circle id="circle217" cx="4.124" cy="4.124" r="4.124" transform="translate(21.826 0)" fill="#fff"/>
        </g>
      </g>
      <g id="g320" transform="translate(479.705 438.777)">
        <g id="circle310" transform="translate(0 0)" fill="#050505" stroke="#6eebff" stroke-miterlimit="10" stroke-width="2">
          <circle cx="20.317" cy="20.317" r="20.317" stroke="none"/>
          <circle cx="20.317" cy="20.317" r="19.317" fill="none"/>
        </g>
        <g id="g318" transform="translate(5.834 9.052)">
          <path id="path312" d="M501.127,465.8V452.929a1.335,1.335,0,0,1,.3-1.006.577.577,0,0,1,.7-.2c.6.2.9.7.9,1.71v6.94a4.578,4.578,0,0,0,2.112.5,2.783,2.783,0,0,0,1.609-.5c1.006-.7,1.509-1.911,1.509-3.721a6.529,6.529,0,0,0-1.207-4.325,8.841,8.841,0,0,0-4.124-2.615c-1.308-.4-2.514-.8-3.621-1.106s-2.012-.5-2.917-.7v12.271h0v2.716h0v1.71h0v2.515h0v1.509l4.727,1.509v-3.621h0Z" transform="translate(-485.537 -447.9)" fill="#6eebff"/>
          <path id="path314" d="M496.06,464.726l-1.71.6-.9.4-1.609.3-1.509-.2c-.3-.2-.4-.4-.2-.6.1-.1.2-.1.3-.2s.3-.1.4-.2l1.106-.4,4.124-1.509V460.2l-1.71.5-5.532,2.012-1.006.4c-1.509.6-2.213,1.207-2.213,1.81.1.8,1.006,1.509,2.716,1.911a15.3,15.3,0,0,0,4.325.5,20.322,20.322,0,0,0,3.319-.3V464.72Z" transform="translate(-485.6 -447.829)" fill="#6eebff"/>
          <path id="path316" d="M511.86,462.4a12.964,12.964,0,0,0-2.514-.6,10.539,10.539,0,0,0-2.515-.1,26.772,26.772,0,0,0-2.816.3,15.343,15.343,0,0,0-2.615.8v2.816l3.923-1.408,1.609-.5,1.106-.3h1.408c.3.1.6.2.7.4,0,.2-.2.4-.8.6l-1.408.5-6.538,2.414v2.716l3.52-1.308,6.437-2.313.7-.4c1.509-.5,2.213-1.207,2.213-1.911C514.274,463.511,513.47,462.907,511.86,462.4Z" transform="translate(-485.508 -447.82)" fill="#6eebff"/>
        </g>
      </g>
      <g id="g338" transform="translate(206.432 192.048)">
        <g id="g328" transform="translate(487.607)">
          <g id="g326">
            <path id="path322" d="M794.774,207.09a2.156,2.156,0,0,0-1.106-1.911c-4.526-2.917-23.536-13.679-51.8-13.679-27.056,0-41.339,5.934-45.362,8.046a2.213,2.213,0,0,0-1.207,2.012s9.857-2.917,47.776-2.917S794.774,207.09,794.774,207.09Z" transform="translate(-695.199 -191.5)" fill="#0a0a0a" stroke="#6eebff" stroke-width="1"/>
            <path id="path324" d="M794.674,213.989h0v-6.94s-13.78-8.449-51.7-8.449c-38.019,0-47.776,2.917-47.776,2.917v11.064h0c7.745-1.308,21.323-2.615,44.356-2.615C768.221,210.066,785.723,212.38,794.674,213.989Z" transform="translate(-695.2 -191.459)" fill="#121212" stroke="#6eebff" stroke-width="1"/>
          </g>
        </g>
        <g id="g336">
          <g id="g334">
            <path id="path330" d="M205.8,207.09a2.157,2.157,0,0,1,1.106-1.911c4.526-2.917,23.536-13.679,51.8-13.679,27.056,0,41.339,5.934,45.362,8.046a2.213,2.213,0,0,1,1.207,2.012s-9.857-2.917-47.776-2.917S205.8,207.09,205.8,207.09Z" transform="translate(-205.8 -191.5)" fill="#0a0a0a" stroke="#6eebff" stroke-width="1"/>
            <path id="path332" d="M205.9,213.989h0v-6.94s13.78-8.449,51.7-8.449c38.019,0,47.776,2.917,47.776,2.917v11.064h0c-7.745-1.308-21.323-2.615-44.356-2.615C232.353,210.066,214.852,212.38,205.9,213.989Z" transform="translate(-205.799 -191.459)" fill="#121212" stroke="#6eebff" stroke-width="1"/>
          </g>
        </g>
      </g>
      <g id="g376" transform="translate(206.432 97.1)">
        <g id="g356" transform="translate(487.607)">
          <g id="g354">
            <g id="g344">
              <path id="path340" d="M794.775,188.427s-32.89-3.219-50.894-3.219-48.681,2.414-48.681,2.414,3.118-44.959,4.828-52.3c1.609-7.342,7.745-21.424,17-28.062S729,97.1,739.858,97.1s25.547,6.437,34.8,21.524C784.013,133.711,794.775,188.427,794.775,188.427Z" transform="translate(-695.2 -97.1)" fill="#121212" stroke="#6eebff" stroke-width="1"/>
              <path id="path342" d="M695.7,180.326s26.251-4.426,49.284-4.426c22.932,0,48.178,4.426,48.178,4.426,1.006,4.727,1.609,7.644,1.609,7.644s-32.89-3.219-50.894-3.219-48.681,2.414-48.681,2.414S695.4,184.449,695.7,180.326Z" transform="translate(-695.2 -96.643)" fill="#0a0a0a" stroke="#6eebff" stroke-width="1"/>
            </g>
            <g id="g352" transform="translate(30.074 58.739)">
              <g id="g348" transform="translate(15.489)">
                <path id="path346" d="M745.73,162.842c-2.112,1.71-3.219,2.615-3.219,2.615a6.744,6.744,0,0,0-2.012,4.526h9.857v-2.615H744.02a6.744,6.744,0,0,1,2.112-1.911,12.538,12.538,0,0,0,2.716-2.112,4.8,4.8,0,0,0,1.307-3.319,4.248,4.248,0,0,0-1.408-3.319,5.16,5.16,0,0,0-3.52-1.207c-3.118,0-4.727,1.71-4.727,5.029h2.716q0-2.716,2.112-2.716a1.837,1.837,0,0,1,2.012,2.112C747.541,161.032,746.937,161.937,745.73,162.842Z" transform="translate(-740.5 -155.5)" fill="#6eebff" stroke="#6eebff" stroke-width="1"/>
              </g>
              <path id="path350" d="M728.117,164.35h3.018c1.509,0,2.313.6,2.414,1.911.1,1.207.2,2.515.3,3.822h3.319v-.4c-.5-.2-.7-.7-.7-1.509a2.83,2.83,0,0,1,.1-.8v-.7a3.585,3.585,0,0,0-1.81-3.52,3.268,3.268,0,0,0,2.213-3.42,3.562,3.562,0,0,0-1.308-3.017,4.75,4.75,0,0,0-3.219-1.006H725.1v14.383h3.017Zm0-6.236h3.721c1.408,0,2.112.6,2.112,1.911s-.8,1.911-2.313,1.911h-3.52Z" transform="translate(-725.1 -155.499)" fill="#6eebff" stroke="#6eebff" stroke-width="1"/>
            </g>
          </g>
        </g>
        <g id="g374">
          <g id="g372">
            <g id="g362">
              <path id="path358" d="M205.8,188.427s32.89-3.219,50.894-3.219,48.58,2.414,48.58,2.414-3.118-44.959-4.828-52.3c-1.609-7.342-7.745-21.424-17-28.062C274.3,100.52,271.58,97.1,260.717,97.1s-25.547,6.437-34.8,21.524S205.8,188.427,205.8,188.427Z" transform="translate(-205.8 -97.1)" fill="#121212" stroke="#6eebff" stroke-width="1"/>
              <path id="path360" d="M304.872,180.326S278.62,175.9,255.587,175.9c-22.932,0-48.178,4.426-48.178,4.426-1.006,4.727-1.609,7.644-1.609,7.644s32.89-3.219,50.894-3.219,48.58,2.414,48.58,2.414S305.174,184.449,304.872,180.326Z" transform="translate(-205.8 -96.643)" fill="#0a0a0a" stroke="#6eebff" stroke-width="1"/>
            </g>
            <g id="g370" transform="translate(46.166 58.739)">
              <g id="g366" transform="translate(13.478)">
                <path id="path364" d="M270.33,162.842c-2.112,1.71-3.219,2.615-3.219,2.615a6.744,6.744,0,0,0-2.012,4.526h9.857v-2.615H268.72a6.744,6.744,0,0,1,2.112-1.911,12.54,12.54,0,0,0,2.716-2.112,4.8,4.8,0,0,0,1.308-3.319,4.247,4.247,0,0,0-1.408-3.319,5.159,5.159,0,0,0-3.52-1.207c-3.118,0-4.727,1.71-4.727,5.029h2.716q0-2.716,2.112-2.716a1.837,1.837,0,0,1,2.012,2.112C272.141,161.032,271.537,161.937,270.33,162.842Z" transform="translate(-265.1 -155.5)" fill="#6eebff" stroke="#6eebff" stroke-width="1"/>
              </g>
              <path id="polygon368" d="M261.859,167.368h-7.041V155.6H251.7v14.383h10.159Z" transform="translate(-251.7 -155.499)" fill="#6eebff" stroke="#6eebff" stroke-width="1"/>
            </g>
          </g>
        </g>
      </g>
      <g id="g406" transform="translate(316.63 227.898)">
        <g id="g392" transform="translate(320.55)">
          <g id="path378" transform="translate(-636.4 -227.9)" fill="none">
            <path d="M644.648,231.722a4.136,4.136,0,0,1-8.248,0,3.837,3.837,0,0,1,4.124-3.822,3.783,3.783,0,0,1,4.124,3.822Zm-6.739,0a2.5,2.5,0,0,0,2.615,2.716,2.552,2.552,0,0,0,2.615-2.716,2.617,2.617,0,1,0-5.23,0Z" stroke="none"/>
            <path d="M 640.5240478515625 235.5432891845703 C 638.3618774414062 235.5432891845703 636.5645751953125 233.8779144287109 636.4000244140625 231.7220001220703 C 636.4012451171875 230.6552429199219 636.8464965820312 229.6371307373047 637.62890625 228.9120025634766 C 638.4113159179688 228.1868896484375 639.460205078125 227.820068359375 640.5240478515625 227.9000091552734 C 641.592041015625 227.8032836914062 642.6505126953125 228.1641693115234 643.4368286132812 228.8929443359375 C 644.2232055664062 229.6217346191406 644.6633911132812 230.6499633789062 644.64794921875 231.7219848632812 L 644.6480102539062 231.7220001220703 C 644.4835205078125 233.8779144287109 642.6862182617188 235.5432891845703 640.5240478515625 235.5432891845703 Z M 640.5239868164062 229.0028076171875 C 640.0611572265625 229.0028076171875 639.598388671875 229.1254119873047 639.1860961914062 229.3706359863281 C 638.361572265625 229.8610992431641 637.8715209960938 230.7633819580078 637.9089965820312 231.7220001220703 C 637.845703125 232.4420776367188 638.0971069335938 233.1543273925781 638.5984497070312 233.6750640869141 C 639.099853515625 234.1957702636719 639.8020629882812 234.4739837646484 640.5239868164062 234.43798828125 C 641.242431640625 234.457275390625 641.9330444335938 234.1737213134766 642.4306640625 233.6569366455078 C 642.92822265625 233.1401824951172 643.185302734375 232.4378662109375 643.1389770507812 231.7220153808594 C 643.1764526367188 230.7633819580078 642.6864013671875 229.8610992431641 641.8618774414062 229.3706359863281 C 641.4496459960938 229.1254119873047 640.98681640625 229.0028076171875 640.5239868164062 229.0028076171875 Z" stroke="none" fill="#6eebff"/>
          </g>
          <g id="path380" transform="translate(-636.345 -227.899)" fill="none">
            <path d="M645.9,228.1h3.822c2.414,0,2.917,1.308,2.917,2.213s-.5,2.213-2.917,2.213h-2.313v2.816H645.9Zm1.509,3.42h2.213c.7,0,1.509-.3,1.509-1.207s-.7-1.207-1.509-1.207h-2.213Z" stroke="none"/>
            <path d="M 645.9000244140625 228.1000061035156 L 649.7220458984375 228.1000061035156 C 652.1360473632812 228.1000061035156 652.6390380859375 229.4080047607422 652.6390380859375 230.3130035400391 C 652.6390380859375 231.2180023193359 652.1390380859375 232.5260009765625 649.7220458984375 232.5260009765625 L 647.4090576171875 232.5260009765625 L 647.4090576171875 235.3419952392578 L 645.9000244140625 235.3419952392578 L 645.9000244140625 228.1000061035156 Z M 649.6220092773438 231.5200042724609 C 650.322021484375 231.5200042724609 651.1309814453125 231.2200012207031 651.1309814453125 230.3130035400391 C 651.1309814453125 229.406005859375 650.4309692382812 229.1060028076172 649.6220092773438 229.1060028076172 L 647.4089965820312 229.1060028076172 L 647.4089965820312 231.5200042724609 L 649.6220092773438 231.5200042724609 Z" stroke="none" fill="#6eebff"/>
          </g>
          <g id="path382" transform="translate(-636.303 -227.899)" fill="none">
            <path d="M653.1,228.1h6.94v1.106h-2.716v6.135h-1.509v-6.236H653.1Z" stroke="none"/>
            <path d="M 653.0999755859375 228.1000061035156 L 660.0399780273438 228.1000061035156 L 660.0399780273438 229.2060089111328 L 657.323974609375 229.2060089111328 L 657.323974609375 235.3410034179688 L 655.8150024414062 235.3410034179688 L 655.8150024414062 229.1050109863281 L 653.0999755859375 229.1050109863281 L 653.0999755859375 228.1000061035156 Z" stroke="none" fill="#6eebff"/>
          </g>
          <g id="path384" transform="translate(-636.257 -227.899)" fill="none">
            <path d="M661.1,228.1h1.509v7.242H661.1Z" stroke="none"/>
            <path d="M 661.0999755859375 228.1000061035156 L 662.6089477539062 228.1000061035156 L 662.6089477539062 235.3420104980469 L 661.0999755859375 235.3420104980469 L 661.0999755859375 228.1000061035156 Z" stroke="none" fill="#6eebff"/>
          </g>
          <g id="path386" transform="translate(-636.24 -227.9)" fill="none">
            <path d="M672.148,231.722a4.136,4.136,0,0,1-8.248,0,3.837,3.837,0,0,1,4.124-3.822,3.783,3.783,0,0,1,4.124,3.822Zm-6.739,0a2.5,2.5,0,0,0,2.615,2.716,2.552,2.552,0,0,0,2.615-2.716,2.617,2.617,0,1,0-5.23,0Z" stroke="none"/>
            <path d="M 668.0239868164062 235.5428771972656 C 665.8619995117188 235.5428771972656 664.0647583007812 233.8777313232422 663.9000244140625 231.7220001220703 C 663.9012451171875 230.6552276611328 664.3464965820312 229.6371002197266 665.12890625 228.9119720458984 C 665.9113159179688 228.1868438720703 666.9602661132812 227.8200073242188 668.0241088867188 227.8999938964844 C 669.0927734375 227.8032073974609 670.1505737304688 228.1641693115234 670.9368896484375 228.8929138183594 C 671.7232666015625 229.6217193603516 672.1634521484375 230.6499481201172 672.1480102539062 231.7219848632812 L 672.1480102539062 231.7220001220703 C 671.9832153320312 233.8777313232422 670.18603515625 235.5428771972656 668.0239868164062 235.5428771972656 Z M 665.4089965820312 231.7220001220703 C 665.3455810546875 232.4420928955078 665.5969848632812 233.1543426513672 666.098388671875 233.6750793457031 C 666.5996704101562 234.1957702636719 667.3007202148438 234.4739379882812 668.0239868164062 234.43798828125 C 668.7415161132812 234.457275390625 669.4332275390625 234.1737060546875 669.9307250976562 233.6569519042969 C 670.4282836914062 233.1401977539062 670.6853637695312 232.4378662109375 670.6390380859375 231.7220001220703 C 670.676513671875 230.7633819580078 670.1864624023438 229.8610992431641 669.3619384765625 229.3706359863281 C 668.5374755859375 228.8801879882812 667.5106201171875 228.8801879882812 666.6861572265625 229.3706359863281 C 665.8616333007812 229.8610992431641 665.37158203125 230.7633819580078 665.4090576171875 231.7220001220703 L 665.4089965820312 231.7220001220703 Z" stroke="none" fill="#6eebff"/>
          </g>
          <g id="path388" transform="translate(-636.185 -227.899)" fill="none">
            <path d="M673.5,228.1h1.609l3.923,5.331h0V228.1h1.408v7.242h-1.609l-3.923-5.331h0v5.331H673.5Z" stroke="none"/>
            <path d="M 673.5 228.1000061035156 L 675.1090087890625 228.1000061035156 L 679.031982421875 233.4309997558594 L 679.031982421875 228.1000061035156 L 680.4400024414062 228.1000061035156 L 680.4400024414062 235.3420104980469 L 678.8309936523438 235.3420104980469 L 674.9080200195312 230.0110168457031 L 674.9080200195312 235.3420104980469 L 673.5 235.3420104980469 L 673.5 228.1000061035156 Z" stroke="none" fill="#6eebff"/>
          </g>
          <g id="path390" transform="translate(-636.137 -227.9)" fill="none">
            <path d="M683.209,232.929c0,1.106,1.006,1.509,2.213,1.509,1.308,0,1.81-.6,1.81-1.106a.892.892,0,0,0-.7-.9c-.6-.2-1.408-.3-2.615-.6-1.509-.3-1.911-1.106-1.911-1.81,0-1.509,1.609-2.112,3.118-2.112,1.81,0,3.319.8,3.319,2.313H686.93c-.1-.9-.8-1.308-1.81-1.308-.7,0-1.609.2-1.609.9,0,.5.4.8,1.006.9a21.582,21.582,0,0,1,2.515.6,2.085,2.085,0,0,1,1.71,1.81c0,1.609-1.71,2.313-3.42,2.313-2.012,0-3.52-.8-3.621-2.615h1.509Z" stroke="none"/>
            <path d="M 685.322021484375 235.4430084228516 C 683.3099975585938 235.4430084228516 681.802001953125 234.6430053710938 681.7010498046875 232.8280029296875 L 683.2100219726562 232.8280029296875 L 683.208984375 232.9290008544922 C 683.208984375 234.0350036621094 684.2149658203125 234.4380035400391 685.4219970703125 234.4380035400391 C 686.72998046875 234.4380035400391 687.2319946289062 233.8379974365234 687.2319946289062 233.3320007324219 C 687.248291015625 232.9006958007812 686.9534912109375 232.5195922851562 686.5319213867188 232.4270172119141 C 685.9320068359375 232.2270050048828 685.1239624023438 232.1269989013672 683.9169921875 231.8269958496094 C 682.4080200195312 231.5269927978516 682.0059814453125 230.7209930419922 682.0059814453125 230.0169982910156 C 682.0059814453125 228.5079956054688 683.614990234375 227.9049987792969 685.1239624023438 227.9049987792969 C 686.9339599609375 227.9049987792969 688.4429321289062 228.7050018310547 688.4429321289062 230.2180023193359 L 686.9299926757812 230.2180023193359 C 686.8300170898438 229.3130035400391 686.1300048828125 228.9100036621094 685.1199951171875 228.9100036621094 C 684.4199829101562 228.9100036621094 683.510986328125 229.1100006103516 683.510986328125 229.8150024414062 C 683.510986328125 230.3150024414062 683.9110107421875 230.6150054931641 684.5169677734375 230.7200012207031 C 685.3665161132812 230.8695526123047 686.2063598632812 231.0699157714844 687.031982421875 231.3200073242188 C 687.9392700195312 231.4793243408203 688.6344604492188 232.2151489257812 688.7420654296875 233.1300048828125 C 688.7420043945312 234.7389984130859 687.031982421875 235.4430084228516 685.322021484375 235.4430084228516 Z" stroke="none" fill="#6eebff"/>
          </g>
        </g>
        <g id="g404">
          <g id="path394" transform="translate(-317.7 -227.9)" fill="none">
            <path d="M319.209,232.929c0,1.106,1.006,1.509,2.213,1.509,1.307,0,1.81-.6,1.81-1.106a.892.892,0,0,0-.7-.9c-.6-.2-1.408-.3-2.615-.6-1.509-.3-1.911-1.106-1.911-1.81,0-1.509,1.609-2.112,3.118-2.112,1.81,0,3.319.8,3.319,2.313H322.93c-.1-.9-.8-1.308-1.81-1.308-.7,0-1.609.2-1.609.9,0,.5.4.8,1.006.9a21.575,21.575,0,0,1,2.514.6,2.085,2.085,0,0,1,1.71,1.81c0,1.609-1.71,2.313-3.42,2.313-2.012,0-3.52-.8-3.621-2.615h1.509Z" stroke="none"/>
            <path d="M 321.3209838867188 235.4430084228516 C 319.3089904785156 235.4430084228516 317.8009948730469 234.6430053710938 317.6999816894531 232.8280029296875 L 319.208984375 232.8280029296875 L 319.2090148925781 232.9290008544922 C 319.2090148925781 234.0350036621094 320.2150268554688 234.4380035400391 321.4220275878906 234.4380035400391 C 322.7290344238281 234.4380035400391 323.2320251464844 233.8379974365234 323.2320251464844 233.3320007324219 C 323.2483520507812 232.9007110595703 322.9535522460938 232.5196228027344 322.5320434570312 232.4270324707031 C 321.9320068359375 232.2270050048828 321.1240234375 232.1269989013672 319.9170227050781 231.8269958496094 C 318.4080200195312 231.5269927978516 318.0060119628906 230.7209930419922 318.0060119628906 230.0169982910156 C 318.0060119628906 228.5079956054688 319.6150207519531 227.9049987792969 321.1240234375 227.9049987792969 C 322.9340209960938 227.9049987792969 324.4430236816406 228.7050018310547 324.4430236816406 230.2180023193359 L 322.9299926757812 230.2180023193359 C 322.8299865722656 229.3130035400391 322.1300048828125 228.9100036621094 321.1199951171875 228.9100036621094 C 320.4199829101562 228.9100036621094 319.510986328125 229.1100006103516 319.510986328125 229.8150024414062 C 319.510986328125 230.3150024414062 319.9109802246094 230.6150054931641 320.5169982910156 230.7200012207031 C 321.3662414550781 230.8695831298828 322.2057495117188 231.0699462890625 323.031005859375 231.3200073242188 C 323.938232421875 231.4793548583984 324.6333923339844 232.2151794433594 324.7409973144531 233.1300048828125 C 324.7409973144531 234.7389984130859 323.031005859375 235.4430084228516 321.3209838867188 235.4430084228516 Z" stroke="none" fill="#6eebff"/>
          </g>
          <g id="path396" transform="translate(-317.652 -227.899)" fill="none">
            <path d="M325.9,228.1h1.509v2.917h3.923V228.1h1.509v7.242h-1.509v-3.219h-3.923v3.219H325.9Z" stroke="none"/>
            <path d="M 325.8999938964844 228.1000061035156 L 327.4089965820312 228.1000061035156 L 327.4089965820312 231.0170135498047 L 331.3320007324219 231.0170135498047 L 331.3320007324219 228.1000061035156 L 332.8410034179688 228.1000061035156 L 332.8410034179688 235.3420104980469 L 331.3320007324219 235.3420104980469 L 331.3320007324219 232.1230163574219 L 327.4089965820312 232.1230163574219 L 327.4089965820312 235.3420104980469 L 325.8999938964844 235.3420104980469 L 325.8999938964844 228.1000061035156 Z" stroke="none" fill="#6eebff"/>
          </g>
          <g id="path398" transform="translate(-317.607 -227.899)" fill="none">
            <path d="M336.919,228.1h1.609l3.319,7.242h-1.609l-.8-1.911h-3.42l-.8,1.911H333.7Zm-.5,4.325h2.615l-1.308-3.118h0Z" stroke="none"/>
            <path d="M 336.9190063476562 228.1000061035156 L 338.5280151367188 228.1000061035156 L 341.8470153808594 235.3420104980469 L 340.2380065917969 235.3420104980469 L 339.4380187988281 233.4310150146484 L 336.0180053710938 233.4310150146484 L 335.218017578125 235.3420104980469 L 333.7000122070312 235.3420104980469 L 336.9190063476562 228.1000061035156 Z M 339.0339965820312 232.4250030517578 L 337.7259826660156 229.3070068359375 L 336.4190063476562 232.4250030517578 L 339.0339965820312 232.4250030517578 Z" stroke="none" fill="#6eebff"/>
          </g>
          <g id="path400" transform="translate(-317.556 -227.899)" fill="none">
            <path d="M342.6,228.1h4.124c1.911,0,2.816.7,2.816,1.911a1.779,1.779,0,0,1-1.408,1.81h0a1.449,1.449,0,0,1,1.308,1.509c0,.8.1,1.609.5,1.911h-1.609a1.989,1.989,0,0,1-.2-1.106c0-1.308-.3-1.911-1.71-1.911h-2.213v3.017H342.7V228.1Zm1.509,3.219h2.514c1.006,0,1.509-.4,1.509-1.106,0-.9-.7-1.106-1.509-1.106h-2.414v2.213Z" stroke="none"/>
            <path d="M 342.6000061035156 228.1000061035156 L 342.7000122070312 228.1000061035156 L 342.6000061035156 228.1000061035156 Z M 342.7000122070312 228.1000061035156 L 346.7239990234375 228.1000061035156 C 348.635009765625 228.1000061035156 349.5400085449219 228.8000030517578 349.5400085449219 230.0110015869141 C 349.5740356445312 230.8766937255859 348.9794616699219 231.6410064697266 348.1319885253906 231.8209991455078 L 348.1320190429688 231.8209991455078 C 348.9003601074219 231.8953094482422 349.4755859375 232.5588836669922 349.4400329589844 233.3300018310547 C 349.4400329589844 234.1300048828125 349.5400390625 234.9389953613281 349.9400329589844 235.2409973144531 L 348.3310241699219 235.2409973144531 C 348.1593933105469 234.8992309570312 348.0899658203125 234.5152282714844 348.1310119628906 234.1349945068359 C 348.1310119628906 232.8269958496094 347.8310241699219 232.2239990234375 346.4210205078125 232.2239990234375 L 344.2080078125 232.2239990234375 L 344.2080078125 235.2409973144531 L 342.7000122070312 235.2409973144531 L 342.7000122070312 228.1000061035156 Z M 346.6230163574219 231.3190002441406 C 347.6290283203125 231.3190002441406 348.1320190429688 230.9190063476562 348.1320190429688 230.2129974365234 C 348.1320190429688 229.3079986572266 347.4320068359375 229.1069946289062 346.6230163574219 229.1069946289062 L 344.2090148925781 229.1069946289062 L 344.2090148925781 231.3190002441406 L 344.1090087890625 231.3190002441406 L 344.2090148925781 231.3199920654297 L 344.2090148925781 231.3190002441406 L 346.6230163574219 231.3190002441406 Z" stroke="none" fill="#6eebff"/>
          </g>
          <g id="path402" transform="translate(-317.506 -227.899)" fill="none">
            <path d="M351.1,228.1h6.236v1.106h-4.727v1.911h4.325v1.006h-4.325v2.112h4.727v1.106H351.1Z" stroke="none"/>
            <path d="M 351.1000061035156 228.1000061035156 L 357.3359985351562 228.1000061035156 L 357.3359985351562 229.2060089111328 L 352.6090087890625 229.2060089111328 L 352.6090087890625 231.1170043945312 L 356.9340209960938 231.1170043945312 L 356.9340209960938 232.1230010986328 L 352.6090087890625 232.1230010986328 L 352.6090087890625 234.2350006103516 L 357.3359985351562 234.2350006103516 L 357.3359985351562 235.3410034179688 L 351.1000061035156 235.3410034179688 L 351.1000061035156 228.1000061035156 Z" stroke="none" fill="#6eebff"/>
          </g>
        </g>
      </g>
    </g>
  </g>
</svg>
