<svg xmlns="http://www.w3.org/2000/svg" xmlns:xlink="http://www.w3.org/1999/xlink" width="807.02" height="600.037" viewBox="0 0 807.02 600.037">
  <defs>
    <clipPath id="clip-path">
      <rect width="807.02" height="600.037" fill="none"/>
    </clipPath>
  </defs>
  <g id="base" clip-path="url(#clip-path)">
    <g id="base-2" data-name="base" transform="translate(-96.515 -96.6)">
      <g id="g129" transform="translate(97 210.555)">
        <g id="g127">
          <g id="g125">
            <path id="path91" d="M898.345,515.309c-2.9-15.48-17.7-102.369-32-144.415-9.4-27.665-13.1-52.932-17-64.817-12-35.654-33-65.616-33-65.616s-9.5-13.083-10.1-16.279c-.6-3.3-4.7-8.589-4.7-8.589s-17.4-5.693-62.3-5.693-53.7,4.994-53.7,4.994a22.508,22.508,0,0,1-5.9,4.794c-3.5,1.8-11.7,1.7-11.7,1.7h-33.4a1.009,1.009,0,0,0-.9.3,5.288,5.288,0,0,0-.6,2H366.915a7.116,7.116,0,0,0-.6-2,1.062,1.062,0,0,0-.9-.3h-33.4s-8.2.2-11.7-1.7a20.507,20.507,0,0,1-5.9-4.794s-8.8-4.994-53.7-4.994c-44.8,0-62.3,5.693-62.3,5.693s-4.1,5.293-4.7,8.589-10.1,16.279-10.1,16.279-21,29.962-33,65.616c-4,11.885-7.7,37.152-17,64.817-14.3,42.046-29.1,128.935-32,144.415-4.3,23.17-4.6,90.085-4.6,90.085s4.5,53.332,36.2,74.8,56.7,13.982,56.7,13.982,33.1-8.19,57.8-41.846,56.6-129.035,56.6-129.035a24.484,24.484,0,0,1,5.7-5.293,15.8,15.8,0,0,1,6.3-2.6l183.71.1,183.71-.1a15.8,15.8,0,0,1,6.3,2.6,24.482,24.482,0,0,1,5.7,5.293s31.9,95.278,56.6,129.035,57.8,41.846,57.8,41.846,25,7.49,56.7-13.982,36.2-74.8,36.2-74.8S902.745,538.479,898.345,515.309Z" transform="translate(-97 -209.9)" stroke="#6eebff" stroke-width="1"/>
            <path id="path97" d="M449.088,457.544a76.944,76.944,0,1,0-153.888,0,13.471,13.471,0,0,0,.1,2.012c0,.7-.1,1.308-.1,2.012a76.944,76.944,0,0,0,153.888,0,13.483,13.483,0,0,0-.1-2.012C448.988,458.852,449.088,458.148,449.088,457.544Z" transform="translate(-97.256 -210.695)" stroke="#6eebff" stroke-width="1"/>
            <circle id="circle99" cx="73.424" cy="73.424" r="73.424" transform="translate(201.455 169.465)" stroke="#6eebff" stroke-width="1"/>
            <circle id="circle101" cx="51.799" cy="51.799" r="51.799" transform="translate(223.024 191.09)"/>
            <path id="path103" d="M705.688,457.544a76.944,76.944,0,1,0-153.888,0,13.467,13.467,0,0,0,.1,2.012c0,.7-.1,1.308-.1,2.012a76.944,76.944,0,0,0,153.888,0,13.475,13.475,0,0,0-.1-2.012A14.162,14.162,0,0,0,705.688,457.544Z" transform="translate(-97.587 -210.695)" stroke="#6eebff" stroke-width="1"/>
            <circle id="circle105" cx="73.424" cy="73.424" r="73.424" transform="translate(457.743 169.465)" stroke="#6eebff" stroke-width="1"/>
            <circle id="circle107" cx="51.799" cy="51.799" r="51.799" transform="translate(479.423 191.09)" opacity="0.1"/>
            <circle id="circle111" cx="94.847" cy="94.847" r="94.847" transform="translate(556.605 37.919)" stroke="#6eebff" stroke-width="1"/>
            <g id="g123" transform="translate(59.745 37.919)">
              <circle id="circle113" cx="94.847" cy="94.847" r="94.847" transform="translate(0 0)" stroke="#6eebff" stroke-width="1"/>
              <path id="path115" d="M327.411,351.315l9.555-8.952a1.158,1.158,0,0,0,0-1.71l-9.555-8.952a1.122,1.122,0,0,0-1.911.8v17.9a1.154,1.154,0,0,0,1.911.914Z" transform="translate(-155.418 -247.114)" fill="#6eebff"/>
              <path id="path117" d="M242.007,266.968h17.9a1.122,1.122,0,0,0,.8-1.911l-8.952-9.555a1.158,1.158,0,0,0-1.71,0l-8.952,9.555a1.178,1.178,0,0,0,.914,1.911Z" transform="translate(-155.91 -247.556)" fill="#6eebff"/>
              <path id="path119" d="M174.557,331.7,165,340.654a1.158,1.158,0,0,0,0,1.71l9.555,8.952a1.122,1.122,0,0,0,1.911-.8v-17.9a1.132,1.132,0,0,0-1.909-.916Z" transform="translate(-156.352 -247.114)" fill="#6eebff"/>
              <path id="path121" d="M259.91,415.9h-17.9a1.122,1.122,0,0,0-.8,1.911l8.952,9.555a1.158,1.158,0,0,0,1.71,0l8.952-9.555a1.178,1.178,0,0,0-.914-1.911Z" transform="translate(-155.91 -246.623)" fill="#6eebff"/>
            </g>
          </g>
        </g>
      </g>
      <g id="g221" transform="translate(467.133 388.431)">
        <g id="g207">
          <circle id="circle193" cx="4.124" cy="4.124" r="4.124" transform="translate(28.766 21.021)" fill="#fff"/>
          <circle id="circle195" cx="4.124" cy="4.124" r="4.124" transform="translate(28.766 0)" fill="#fff"/>
          <circle id="circle197" cx="4.124" cy="4.124" r="4.124" transform="translate(21.826 10.259)" fill="#fff"/>
          <circle id="circle199" cx="4.124" cy="4.124" r="4.124" transform="translate(7.041 10.259)" fill="#fff"/>
          <circle id="circle201" cx="4.124" cy="4.124" r="4.124" transform="translate(14.383 21.021)" fill="#fff"/>
          <circle id="circle203" cx="4.124" cy="4.124" r="4.124" transform="translate(14.383 0)" fill="#fff"/>
          <circle id="circle205" cx="4.124" cy="4.124" r="4.124" transform="translate(0 0)" fill="#fff"/>
        </g>
        <g id="g219" transform="translate(35.706)">
          <circle id="circle209" cx="4.124" cy="4.124" r="4.124" transform="translate(0 10.259)" fill="#fff"/>
          <circle id="circle211" cx="4.124" cy="4.124" r="4.124" transform="translate(14.785 10.259)" fill="#fff"/>
          <circle id="circle213" cx="4.124" cy="4.124" r="4.124" transform="translate(7.342 21.021)" fill="#fff"/>
          <circle id="circle215" cx="4.124" cy="4.124" r="4.124" transform="translate(7.342 0)" fill="#fff"/>
          <circle id="circle217" cx="4.124" cy="4.124" r="4.124" transform="translate(21.826 0)" fill="#fff"/>
        </g>
      </g>
      <g id="g320" transform="translate(479.705 438.777)">
        <g id="circle310" transform="translate(0 0)" fill="#050505" stroke="#6eebff" stroke-miterlimit="10" stroke-width="2">
          <circle cx="20.317" cy="20.317" r="20.317" stroke="none"/>
          <circle cx="20.317" cy="20.317" r="19.317" fill="none"/>
        </g>
        <g id="g318" transform="translate(5.834 9.052)">
          <path id="path312" d="M501.127,465.8V452.929a1.335,1.335,0,0,1,.3-1.006.577.577,0,0,1,.7-.2c.6.2.9.7.9,1.71v6.94a4.578,4.578,0,0,0,2.112.5,2.783,2.783,0,0,0,1.609-.5c1.006-.7,1.509-1.911,1.509-3.721a6.529,6.529,0,0,0-1.207-4.325,8.841,8.841,0,0,0-4.124-2.615c-1.308-.4-2.514-.8-3.621-1.106s-2.012-.5-2.917-.7v12.271h0v2.716h0v1.71h0v2.515h0v1.509l4.727,1.509v-3.621h0Z" transform="translate(-485.537 -447.9)" fill="#6eebff"/>
          <path id="path314" d="M496.06,464.726l-1.71.6-.9.4-1.609.3-1.509-.2c-.3-.2-.4-.4-.2-.6.1-.1.2-.1.3-.2s.3-.1.4-.2l1.106-.4,4.124-1.509V460.2l-1.71.5-5.532,2.012-1.006.4c-1.509.6-2.213,1.207-2.213,1.81.1.8,1.006,1.509,2.716,1.911a15.3,15.3,0,0,0,4.325.5,20.322,20.322,0,0,0,3.319-.3V464.72Z" transform="translate(-485.6 -447.829)" fill="#6eebff"/>
          <path id="path316" d="M511.86,462.4a12.964,12.964,0,0,0-2.514-.6,10.539,10.539,0,0,0-2.515-.1,26.772,26.772,0,0,0-2.816.3,15.343,15.343,0,0,0-2.615.8v2.816l3.923-1.408,1.609-.5,1.106-.3h1.408c.3.1.6.2.7.4,0,.2-.2.4-.8.6l-1.408.5-6.538,2.414v2.716l3.52-1.308,6.437-2.313.7-.4c1.509-.5,2.213-1.207,2.213-1.911C514.274,463.511,513.47,462.907,511.86,462.4Z" transform="translate(-485.508 -447.82)" fill="#6eebff"/>
        </g>
      </g>
      <g id="g338" transform="translate(206.432 192.048)">
        <g id="g328" transform="translate(487.607)">
          <g id="g326">
            <path id="path322" d="M794.774,207.09a2.156,2.156,0,0,0-1.106-1.911c-4.526-2.917-23.536-13.679-51.8-13.679-27.056,0-41.339,5.934-45.362,8.046a2.213,2.213,0,0,0-1.207,2.012s9.857-2.917,47.776-2.917S794.774,207.09,794.774,207.09Z" transform="translate(-695.199 -191.5)" fill="#0a0a0a" stroke="#6eebff" stroke-width="1"/>
            <path id="path324" d="M794.674,213.989h0v-6.94s-13.78-8.449-51.7-8.449c-38.019,0-47.776,2.917-47.776,2.917v11.064h0c7.745-1.308,21.323-2.615,44.356-2.615C768.221,210.066,785.723,212.38,794.674,213.989Z" transform="translate(-695.2 -191.459)" fill="#121212" stroke="#6eebff" stroke-width="1"/>
          </g>
        </g>
        <g id="g336">
          <g id="g334">
            <path id="path330" d="M205.8,207.09a2.157,2.157,0,0,1,1.106-1.911c4.526-2.917,23.536-13.679,51.8-13.679,27.056,0,41.339,5.934,45.362,8.046a2.213,2.213,0,0,1,1.207,2.012s-9.857-2.917-47.776-2.917S205.8,207.09,205.8,207.09Z" transform="translate(-205.8 -191.5)" fill="#0a0a0a" stroke="#6eebff" stroke-width="1"/>
            <path id="path332" d="M205.9,213.989h0v-6.94s13.78-8.449,51.7-8.449c38.019,0,47.776,2.917,47.776,2.917v11.064h0c-7.745-1.308-21.323-2.615-44.356-2.615C232.353,210.066,214.852,212.38,205.9,213.989Z" transform="translate(-205.799 -191.459)" fill="#121212" stroke="#6eebff" stroke-width="1"/>
          </g>
        </g>
      </g>
      <g id="g376" transform="translate(206.432 97.1)">
        <g id="g356" transform="translate(487.607)">
          <g id="g354">
            <g id="g344">
              <path id="path340" d="M794.775,188.427s-32.89-3.219-50.894-3.219-48.681,2.414-48.681,2.414,3.118-44.959,4.828-52.3c1.609-7.342,7.745-21.424,17-28.062S729,97.1,739.858,97.1s25.547,6.437,34.8,21.524C784.013,133.711,794.775,188.427,794.775,188.427Z" transform="translate(-695.2 -97.1)" fill="#121212" stroke="#6eebff" stroke-width="1"/>
              <path id="path342" d="M695.7,180.326s26.251-4.426,49.284-4.426c22.932,0,48.178,4.426,48.178,4.426,1.006,4.727,1.609,7.644,1.609,7.644s-32.89-3.219-50.894-3.219-48.681,2.414-48.681,2.414S695.4,184.449,695.7,180.326Z" transform="translate(-695.2 -96.643)" fill="#0a0a0a" stroke="#6eebff" stroke-width="1"/>
            </g>
            <g id="g352" transform="translate(30.074 58.739)">
              <g id="g348" transform="translate(15.489)">
                <path id="path346" d="M745.73,162.842c-2.112,1.71-3.219,2.615-3.219,2.615a6.744,6.744,0,0,0-2.012,4.526h9.857v-2.615H744.02a6.744,6.744,0,0,1,2.112-1.911,12.538,12.538,0,0,0,2.716-2.112,4.8,4.8,0,0,0,1.307-3.319,4.248,4.248,0,0,0-1.408-3.319,5.16,5.16,0,0,0-3.52-1.207c-3.118,0-4.727,1.71-4.727,5.029h2.716q0-2.716,2.112-2.716a1.837,1.837,0,0,1,2.012,2.112C747.541,161.032,746.937,161.937,745.73,162.842Z" transform="translate(-740.5 -155.5)" fill="#6eebff" stroke="#6eebff" stroke-width="1"/>
              </g>
              <path id="path350" d="M728.117,164.35h3.018c1.509,0,2.313.6,2.414,1.911.1,1.207.2,2.515.3,3.822h3.319v-.4c-.5-.2-.7-.7-.7-1.509a2.83,2.83,0,0,1,.1-.8v-.7a3.585,3.585,0,0,0-1.81-3.52,3.268,3.268,0,0,0,2.213-3.42,3.562,3.562,0,0,0-1.308-3.017,4.75,4.75,0,0,0-3.219-1.006H725.1v14.383h3.017Zm0-6.236h3.721c1.408,0,2.112.6,2.112,1.911s-.8,1.911-2.313,1.911h-3.52Z" transform="translate(-725.1 -155.499)" fill="#6eebff" stroke="#6eebff" stroke-width="1"/>
            </g>
          </g>
        </g>
        <g id="g374">
          <g id="g372">
            <g id="g362">
              <path id="path358" d="M205.8,188.427s32.89-3.219,50.894-3.219,48.58,2.414,48.58,2.414-3.118-44.959-4.828-52.3c-1.609-7.342-7.745-21.424-17-28.062C274.3,100.52,271.58,97.1,260.717,97.1s-25.547,6.437-34.8,21.524S205.8,188.427,205.8,188.427Z" transform="translate(-205.8 -97.1)" fill="#121212" stroke="#6eebff" stroke-width="1"/>
              <path id="path360" d="M304.872,180.326S278.62,175.9,255.587,175.9c-22.932,0-48.178,4.426-48.178,4.426-1.006,4.727-1.609,7.644-1.609,7.644s32.89-3.219,50.894-3.219,48.58,2.414,48.58,2.414S305.174,184.449,304.872,180.326Z" transform="translate(-205.8 -96.643)" fill="#0a0a0a" stroke="#6eebff" stroke-width="1"/>
            </g>
            <g id="g370" transform="translate(46.166 58.739)">
              <g id="g366" transform="translate(13.478)">
                <path id="path364" d="M270.33,162.842c-2.112,1.71-3.219,2.615-3.219,2.615a6.744,6.744,0,0,0-2.012,4.526h9.857v-2.615H268.72a6.744,6.744,0,0,1,2.112-1.911,12.54,12.54,0,0,0,2.716-2.112,4.8,4.8,0,0,0,1.308-3.319,4.247,4.247,0,0,0-1.408-3.319,5.159,5.159,0,0,0-3.52-1.207c-3.118,0-4.727,1.71-4.727,5.029h2.716q0-2.716,2.112-2.716a1.837,1.837,0,0,1,2.012,2.112C272.141,161.032,271.537,161.937,270.33,162.842Z" transform="translate(-265.1 -155.5)" fill="#6eebff" stroke="#6eebff" stroke-width="1"/>
              </g>
              <path id="polygon368" d="M261.859,167.368h-7.041V155.6H251.7v14.383h10.159Z" transform="translate(-251.7 -155.499)" fill="#6eebff" stroke="#6eebff" stroke-width="1"/>
            </g>
          </g>
        </g>
      </g>
      <g id="g262" transform="translate(371.785 223.779)">
        <g id="path255" transform="translate(-372.5 -219.5)">
          <path id="Path_14" data-name="Path 14" d="M374.5,221.5V351.361a13.707,13.707,0,0,0,13.691,13.691h225.1a13.706,13.706,0,0,0,13.69-13.691v-123.8l-.1-6.063H374.5m-.089-2H626.969a1.91,1.91,0,0,1,1.911,1.911l.1,6.135V351.361a15.711,15.711,0,0,1-15.69,15.691h-225.1A15.711,15.711,0,0,1,372.5,351.361V221.411A1.91,1.91,0,0,1,374.411,219.5Z" fill="#6eebff"/>
        </g>
      </g>
    </g>
  </g>
</svg>
