<svg xmlns="http://www.w3.org/2000/svg" width="178.527" height="103.928" viewBox="0 0 178.527 103.928">
  <g id="dpad" transform="translate(432.018 -743.282)">
    <g id="g26">
      <g id="g6">
        <g id="path2">
          <path id="Path_1" data-name="Path 1" d="M-307.5,763.9c1.4-2,1.2-2.9,1.2-2.9s.2-.9-1.2-2.9-15-13.6-15.7-14-28.5-2.2-31.4,1.3-2.6,15.6-2.6,15.6-.3,12.1,2.6,15.6,30.7,1.7,31.4,1.3S-308.9,765.9-307.5,763.9Z" fill="#6eebff"/>
          <path id="Path_2" data-name="Path 2" d="M-339.426,776.718c6.866,0,13.732-.472,15.394-.691.919-.728,3.833-3.171,7.335-6.236,6.6-5.776,7.48-6.926,7.559-7.038a5.233,5.233,0,0,0,.83-1.568l-.041-.185.041-.185a5.233,5.233,0,0,0-.83-1.568c-.079-.112-.958-1.262-7.559-7.039-3.5-3.064-6.416-5.508-7.335-6.235-1.662-.219-8.529-.691-15.4-.691-11.393,0-13.456,1.277-13.657,1.426-.439.553-1.442,2.391-1.9,7.936-.278,3.319-.21,6.277-.21,6.306l0,.05,0,.049c0,.03-.069,2.956.207,6.273.462,5.57,1.468,7.415,1.908,7.969.2.15,2.265,1.427,13.659,1.427h0m0,2c-6.957,0-13.809-.475-15.171-2.118-2.9-3.5-2.6-15.6-2.6-15.6s-.3-12.1,2.6-15.6c1.362-1.643,8.213-2.118,15.171-2.118a131.867,131.867,0,0,1,16.229.818c.7.4,14.3,12,15.7,14s1.2,2.9,1.2,2.9.2.9-1.2,2.9-15,13.6-15.7,14A131.851,131.851,0,0,1-339.429,778.718Z" fill="#6eebff"/>
        </g>
      </g>
      <g id="g12">
        <g id="path8">
          <path id="Path_3" data-name="Path 3" d="M-379.8,793c2,1.4,2.9,1.2,2.9,1.2s.9.2,2.9-1.2,13.6-15,14-15.7,2.2-28.5-1.3-31.4-15.6-2.6-15.6-2.6-12.1-.2-15.6,2.6-1.7,30.7-1.3,31.4S-381.8,791.6-379.8,793Z" fill="#6eebff"/>
          <path id="Path_4" data-name="Path 4" d="M-376.716,792.192a5.221,5.221,0,0,0,1.569-.83c.112-.079,1.262-.958,7.038-7.559,3.063-3.5,5.506-6.413,6.235-7.333.193-1.507.641-7.587.688-14.282.088-12.373-1.267-14.565-1.422-14.774-.467-.37-1.966-1.221-6.236-1.734a62.882,62.882,0,0,0-7.093-.389c-.57,0-.91.008-.913.008h-.083s-.18,0-.494,0a67.9,67.9,0,0,0-7.053.37c-4.614.515-6.226,1.381-6.73,1.763-.167.234-1.495,2.479-1.4,14.77.047,6.391.475,12.673.686,14.268.728.918,3.171,3.833,6.237,7.335,5.776,6.6,6.926,7.48,7.038,7.559a5.261,5.261,0,0,0,1.568.83l.185-.041.184.041m-.048,2.018a.7.7,0,0,1-.136-.01.686.686,0,0,1-.136.01A5.26,5.26,0,0,1-379.8,793c-2-1.4-13.6-15-14-15.7s-2.2-28.6,1.3-31.4c3.062-2.45,12.709-2.6,15.073-2.6.338,0,.527,0,.527,0s.355-.009.963-.009c2.934,0,11.737.206,14.637,2.609,3.5,2.9,1.7,30.7,1.3,31.4s-12,14.3-14,15.7A5.26,5.26,0,0,1-376.764,794.21Z" fill="#6eebff"/>
        </g>
      </g>
      <g id="g18">
        <g id="path14">
          <path id="Path_7" data-name="Path 7" d="M-256.1,745.5c-2.9-3.5-30.7-1.7-31.4-1.3s-14.3,12-15.7,14-1.2,2.9-1.2,2.9-.2.9,1.2,2.9,15,13.6,15.7,14,28.5,2.2,31.4-1.3,2.6-15.6,2.6-15.6S-253.2,749-256.1,745.5Z" fill="#6eebff"/>
          <path id="Path_8" data-name="Path 8" d="M-271.274,745.382c-6.866,0-13.732.472-15.394.691-.919.727-3.833,3.171-7.335,6.236-6.6,5.776-7.48,6.926-7.559,7.038a5.234,5.234,0,0,0-.83,1.568l.041.185-.041.185a5.234,5.234,0,0,0,.83,1.568c.079.112.958,1.262,7.559,7.039,3.5,3.064,6.416,5.508,7.335,6.236,1.662.218,8.529.69,15.4.69,11.392,0,13.455-1.277,13.657-1.426.439-.553,1.442-2.391,1.905-7.936.278-3.319.21-6.277.21-6.306l0-.05,0-.049c0-.03.069-2.956-.207-6.273-.462-5.57-1.468-7.415-1.908-7.969-.2-.15-2.265-1.427-13.659-1.427h0m0-2c6.957,0,13.809.475,15.171,2.118,2.9,3.5,2.6,15.6,2.6,15.6s.3,12.1-2.6,15.6c-1.362,1.644-8.213,2.118-15.171,2.118A131.868,131.868,0,0,1-287.5,778c-.7-.4-14.3-12-15.7-14s-1.2-2.9-1.2-2.9-.2-.9,1.2-2.9,15-13.6,15.7-14A131.838,131.838,0,0,1-271.271,743.382Z" fill="none"/>
        </g>
      </g>
      <g id="g24">
        <g id="path20">
          <path id="Path_9" data-name="Path 9" d="M-411.4,744.5c-2-1.4-2.9-1.2-2.9-1.2s-.9-.2-2.9,1.2-13.6,15-14,15.7-2.2,28.5,1.3,31.4,15.6,2.6,15.6,2.6,12.1.3,15.6-2.6,1.7-30.7,1.3-31.4S-409.4,745.9-411.4,744.5Z" fill="#00dcff"/>
          <path id="Path_10" data-name="Path 10" d="M-414.484,745.308a5.221,5.221,0,0,0-1.569.83c-.112.079-1.262.958-7.038,7.559-3.063,3.5-5.505,6.413-6.235,7.333-.193,1.507-.641,7.587-.688,14.282-.088,12.373,1.267,14.565,1.422,14.774.467.37,1.966,1.221,6.236,1.734a62.882,62.882,0,0,0,7.093.389c.57,0,.91-.008.913-.008l.05,0,.049,0s.344.008.913.008a62.871,62.871,0,0,0,7.093-.389c4.27-.513,5.77-1.364,6.237-1.734.155-.209,1.51-2.4,1.422-14.774-.047-6.7-.495-12.775-.688-14.282-.729-.92-3.171-3.833-6.235-7.333-5.776-6.6-6.926-7.48-7.038-7.559a5.262,5.262,0,0,0-1.568-.83l-.185.041-.184-.041m.048-2.018a.686.686,0,0,1,.136.01.686.686,0,0,1,.136-.01,5.26,5.26,0,0,1,2.764,1.21c2,1.4,13.6,15,14,15.7s2.2,28.5-1.3,31.4c-2.9,2.4-11.7,2.609-14.638,2.609-.606,0-.962-.009-.962-.009s-.355.009-.963.009c-2.934,0-11.737-.206-14.637-2.609-3.5-2.9-1.7-30.7-1.3-31.4s12-14.3,14-15.7A5.26,5.26,0,0,1-414.436,743.29Z" fill="#6eebff"/>
        </g>
      </g>
    </g>
    <g id="g52">
      <g id="g32">
        <path id="path28" d="M-307.5,816.9c1.4-2,1.2-2.9,1.2-2.9s.2-.9-1.2-2.9-15-13.6-15.7-14-28.5-2.2-31.4,1.3-2.6,15.6-2.6,15.6-.3,12.1,2.6,15.6,30.7,1.7,31.4,1.3S-308.9,818.9-307.5,816.9Z" fill="#fff"/>
        <path id="path30" d="M-307.5,816.9c1.4-2,1.2-2.9,1.2-2.9s.2-.9-1.2-2.9c-.9-1.3-6.9-6.6-11.2-10.3a27.841,27.841,0,0,0-3.4,13.2,26.732,26.732,0,0,0,3.4,13.2C-314.4,823.5-308.4,818.2-307.5,816.9Z" fill="#fff" opacity="0.25"/>
      </g>
      <g id="g38">
        <path id="path34" d="M-379.8,846c2,1.4,2.9,1.2,2.9,1.2s.9.2,2.9-1.2,13.6-15,14-15.7,2.2-28.5-1.3-31.4-15.6-2.6-15.6-2.6-12.1-.2-15.6,2.6-1.7,30.7-1.3,31.4S-381.8,844.6-379.8,846Z" fill="#fff"/>
        <path id="path36" d="M-379.8,846c2,1.4,2.9,1.2,2.9,1.2s.9.2,2.9-1.2c1.3-.9,6.6-6.9,10.3-11.2a27.841,27.841,0,0,0-13.2-3.4,26.734,26.734,0,0,0-13.2,3.4C-386.4,839.1-381.1,845.1-379.8,846Z" fill="#fff" opacity="0.25"/>
      </g>
      <g id="g44">
        <path id="path40" d="M-256.1,798.4c-2.9-3.5-30.7-1.7-31.4-1.3s-14.3,12-15.7,14-1.2,2.9-1.2,2.9-.2.9,1.2,2.9,15,13.6,15.7,14,28.5,2.2,31.4-1.3,2.6-15.6,2.6-15.6S-253.2,801.9-256.1,798.4Z" fill="#fff"/>
        <path id="path42" d="M-291.9,800.9c-4.3,3.7-10.3,9-11.2,10.3-1.4,2-1.2,2.9-1.2,2.9s-.2.9,1.2,2.9c.9,1.3,6.9,6.6,11.2,10.3a27.841,27.841,0,0,0,3.4-13.2,27.84,27.84,0,0,0-3.4-13.2Z" fill="#fff" opacity="0.25"/>
      </g>
      <g id="g50">
        <path id="path46" d="M-411.4,797.5c-2-1.4-2.9-1.2-2.9-1.2s-.9-.2-2.9,1.2-13.6,15-14,15.7-2.2,28.5,1.3,31.4,15.6,2.6,15.6,2.6,12.1.3,15.6-2.6,1.7-30.7,1.3-31.4S-409.4,798.9-411.4,797.5Z" fill="#fff"/>
        <path id="path48" d="M-411.4,797.5c-2-1.4-2.9-1.2-2.9-1.2s-.9-.2-2.9,1.2c-1.3.9-6.6,6.9-10.3,11.2a27.841,27.841,0,0,0,13.2,3.4,26.733,26.733,0,0,0,13.2-3.4C-404.8,804.4-410.1,798.4-411.4,797.5Z" fill="#fff" opacity="0.25"/>
      </g>
    </g>
  </g>
</svg>
