<svg xmlns="http://www.w3.org/2000/svg" width="284.5" height="94" viewBox="0 0 284.5 94">
  <g id="sticks" transform="translate(814.5 -494)">
    <g id="g12">
      <g id="g8" opacity="0.72">
        <g id="path4">
          <path id="Path_11" data-name="Path 11" d="M-769,585.5a44.134,44.134,0,0,1-17.308-3.5,44.394,44.394,0,0,1-14.147-9.544A44.394,44.394,0,0,1-810,558.308,44.134,44.134,0,0,1-813.5,541a44.134,44.134,0,0,1,3.5-17.308,44.394,44.394,0,0,1,9.544-14.147A44.392,44.392,0,0,1-786.308,500,44.134,44.134,0,0,1-769,496.5a44.134,44.134,0,0,1,17.308,3.5,44.392,44.392,0,0,1,14.147,9.544A44.394,44.394,0,0,1-728,523.692,44.134,44.134,0,0,1-724.5,541a44.134,44.134,0,0,1-3.5,17.308,44.394,44.394,0,0,1-9.544,14.147A44.394,44.394,0,0,1-751.692,582,44.134,44.134,0,0,1-769,585.5Z" fill="#6eebff"/>
          <path id="Path_12" data-name="Path 12" d="M-769,584.5A43.549,43.549,0,0,0-725.5,541,43.549,43.549,0,0,0-769,497.5,43.549,43.549,0,0,0-812.5,541,43.549,43.549,0,0,0-769,584.5m0,2A45.537,45.537,0,0,1-814.5,541,45.537,45.537,0,0,1-769,495.5,45.537,45.537,0,0,1-723.5,541,45.537,45.537,0,0,1-769,586.5Z" fill="#6eebff"/>
        </g>
      </g>
      <circle id="circle10" cx="27.3" cy="27.3" r="27.3" transform="translate(-796.3 513.7)" fill="#6eebff"/>
    </g>
    <g id="g28">
      <g id="g18">
        <path id="path14" d="M-577,586.5A45.537,45.537,0,0,1-622.5,541,45.537,45.537,0,0,1-577,495.5,45.537,45.537,0,0,1-531.5,541,45.537,45.537,0,0,1-577,586.5Z" fill="#fff"/>
        <path id="path16" d="M-577,497a44,44,0,0,1,44,44,44,44,0,0,1-44,44,44,44,0,0,1-44-44,44,44,0,0,1,44-44m0-3a46.946,46.946,0,0,0-33.25,13.75A46.946,46.946,0,0,0-624,541a46.946,46.946,0,0,0,13.75,33.25A46.946,46.946,0,0,0-577,588a46.946,46.946,0,0,0,33.25-13.75A46.946,46.946,0,0,0-530,541a46.946,46.946,0,0,0-13.75-33.25A46.946,46.946,0,0,0-577,494Z" fill="#fff"/>
      </g>
      <circle id="circle20" cx="27.3" cy="27.3" r="27.3" transform="translate(-604.3 513.7)" fill="#fff"/>
      <g id="g26">
        <path id="path22" d="M-597.3,527.5h12.6c5.8,0,8.7,2.7,8.7,7.1,0,5.1-3.5,6.4-4.4,6.7v.1c1.6.2,3.9,1.4,3.9,5.6,0,3.1.4,5.9,1.4,7h-5a7.358,7.358,0,0,1-.7-3.9c0-4.8-1-7-5.3-7h-6.8V554h-4.6V527.5Zm4.6,12.1h7.6q4.5,0,4.5-4.2c0-3.4-2.2-4-4.6-4h-7.5Z"/>
        <path id="path24" d="M-565.7,538.8c2.8.1,5.7-.9,5.7-4.1a3.709,3.709,0,0,0-1.19-2.725A3.709,3.709,0,0,0-564,531c-2.9,0-4.4,2.6-4.3,5.3h-4.2c.2-5,3.4-8.8,8.6-8.8,4,0,8.2,2.3,8.2,6.9,0,2.6-1.1,4.7-3.7,5.5v.1c3,.6,4.7,3.1,4.7,6.5,0,4.9-4.3,7.9-9.2,7.9-6,0-9-3.6-9.1-9h4.2c-.1,3.1,1.6,5.5,4.9,5.5,2.8,0,5-1.7,5-4.6,0-4-3.4-4.5-6.8-4.4v-3.1Z"/>
      </g>
    </g>
    <g id="g44">
      <g id="g34">
        <path id="path30" d="M-673,586.5A45.537,45.537,0,0,1-718.5,541,45.537,45.537,0,0,1-673,495.5,45.537,45.537,0,0,1-627.5,541,45.537,45.537,0,0,1-673,586.5Z" fill="#fff"/>
        <path id="path32" d="M-673,497a44,44,0,0,1,44,44,44,44,0,0,1-44,44,44,44,0,0,1-44-44,44,44,0,0,1,44-44m0-3a46.946,46.946,0,0,0-33.25,13.75A46.946,46.946,0,0,0-720,541a46.946,46.946,0,0,0,13.75,33.25A46.946,46.946,0,0,0-673,588a46.946,46.946,0,0,0,33.25-13.75A46.946,46.946,0,0,0-626,541a46.946,46.946,0,0,0-13.75-33.25A46.946,46.946,0,0,0-673,494Z" fill="#fff"/>
      </g>
      <circle id="circle36" cx="27.3" cy="27.3" r="27.3" transform="translate(-700.3 513.7)" fill="#fff"/>
      <g id="g42">
        <path id="path38" d="M-690.9,527.5h4.6v22.4h13.4v4h-18Z"/>
        <path id="path40" d="M-664.1,538.8c2.8.1,5.7-.9,5.7-4.1a3.709,3.709,0,0,0-1.19-2.725A3.709,3.709,0,0,0-662.4,531c-2.9,0-4.4,2.6-4.3,5.3h-4.2c.2-5,3.4-8.8,8.6-8.8,4,0,8.2,2.3,8.2,6.9,0,2.6-1.1,4.7-3.7,5.5v.1c3,.6,4.7,3.1,4.7,6.5,0,4.9-4.3,7.9-9.2,7.9-6,0-9-3.6-9.1-9h4.2c-.1,3.1,1.6,5.5,4.9,5.5,2.8,0,5-1.7,5-4.6,0-4-3.4-4.5-6.8-4.4v-3.1Z"/>
      </g>
    </g>
  </g>
</svg>
