<svg xmlns="http://www.w3.org/2000/svg" width="806.1" height="598.967" viewBox="0 0 806.1 598.967">
  <g id="base" transform="translate(-97 -97.1)">
    <g id="g129">
      <g id="g127">
        <g id="g125">
          <path id="path91" d="M898.3,515.7c-2.9-15.5-17.7-102.5-32-144.6-9.4-27.7-13.1-53-17-64.9-12-35.7-33-65.7-33-65.7s-9.5-13.1-10.1-16.3c-.6-3.3-4.7-8.6-4.7-8.6s-17.4-5.7-62.3-5.7-53.7,5-53.7,5a22.515,22.515,0,0,1-5.9,4.8c-3.5,1.8-11.7,1.7-11.7,1.7H634.5a1.008,1.008,0,0,0-.9.3,5.3,5.3,0,0,0-.6,2H366.9a7.134,7.134,0,0,0-.6-2,1.061,1.061,0,0,0-.9-.3H332s-8.2.2-11.7-1.7a20.514,20.514,0,0,1-5.9-4.8s-8.8-5-53.7-5c-44.8,0-62.3,5.7-62.3,5.7s-4.1,5.3-4.7,8.6-10.1,16.3-10.1,16.3-21,30-33,65.7c-4,11.9-7.7,37.2-17,64.9-14.3,42.1-29.1,129.1-32,144.6-4.3,23.2-4.6,90.2-4.6,90.2s4.5,53.4,36.2,74.9,56.7,14,56.7,14,33.1-8.2,57.8-41.9,56.6-129.2,56.6-129.2a24.5,24.5,0,0,1,5.7-5.3,15.791,15.791,0,0,1,6.3-2.6l183.7.1,183.7-.1a15.791,15.791,0,0,1,6.3,2.6,24.5,24.5,0,0,1,5.7,5.3s31.9,95.4,56.6,129.2,57.8,41.9,57.8,41.9,25,7.5,56.7-14S903,605.9,903,605.9,902.7,538.9,898.3,515.7Z" fill="#0d0e13"/>
          <g id="g95" opacity="0.06">
            <path id="path93" d="M133.6,373.1c9.4-27.7,13.1-53,17-64.9,12-35.7,33-65.7,33-65.7s9.5-13.1,10.1-16.3c.6-3.3,4.7-8.6,4.7-8.6s17.4-5.7,62.3-5.7c44.8,0,53.7,5,53.7,5a22.515,22.515,0,0,0,5.9,4.8c3.5,1.8,11.7,1.7,11.7,1.7h33.4a1.008,1.008,0,0,1,.9.3,5.3,5.3,0,0,1,.6,2H633.1a7.135,7.135,0,0,1,.6-2,1.061,1.061,0,0,1,.9-.3H668s8.2.2,11.7-1.7a20.514,20.514,0,0,0,5.9-4.8s8.8-5,53.7-5,62.3,5.7,62.3,5.7,4.1,5.3,4.7,8.6,10.1,16.3,10.1,16.3,21,30,33,65.7c4,11.9,7.7,37.2,17,64.9,14.3,42.1,29.1,129.1,32,144.6,3.9,20.9,4.6,77.3,4.7,88.3v-.1s-.3-66.9-4.7-90.1c-2.9-15.5-17.7-102.5-32-144.6-9.4-27.7-13.1-53-17-64.9-12-35.7-33-65.7-33-65.7s-9.5-13.1-10.1-16.3c-.6-3.3-4.7-8.6-4.7-8.6s-17.4-5.7-62.3-5.7-53.7,5-53.7,5a22.515,22.515,0,0,1-5.9,4.8c-3.5,1.8-11.7,1.7-11.7,1.7H634.6a1.008,1.008,0,0,0-.9.3,5.3,5.3,0,0,0-.6,2H366.9a7.134,7.134,0,0,0-.6-2,1.061,1.061,0,0,0-.9-.3H332s-8.2.2-11.7-1.7a20.514,20.514,0,0,1-5.9-4.8s-8.8-5-53.7-5c-44.8,0-62.3,5.7-62.3,5.7s-4.1,5.3-4.7,8.6-10.1,16.3-10.1,16.3-21,30-33,65.7c-4,11.9-7.7,37.2-17,64.9-14.3,42.1-29.1,129.1-32,144.6-4.3,23.1-4.6,90.1-4.6,90.1v.1c.1-10.9.7-67.4,4.7-88.3C104.6,502.3,119.3,415.2,133.6,373.1Z" fill="#fff"/>
          </g>
          <path id="path97" d="M448.2,457.1a76.5,76.5,0,0,0-153,0,13.4,13.4,0,0,0,.1,2c0,.7-.1,1.3-.1,2a76.5,76.5,0,0,0,153,0,13.4,13.4,0,0,0-.1-2C448.1,458.4,448.2,457.7,448.2,457.1Z" fill="#13161f"/>
          <circle id="circle99" cx="73" cy="73" r="73" transform="translate(298.7 380.1)" fill="#0f1015"/>
          <circle id="circle101" cx="51.5" cy="51.5" r="51.5" transform="translate(320.2 401.6)"/>
          <path id="path103" d="M704.8,457.1a76.5,76.5,0,0,0-153,0,13.405,13.405,0,0,0,.1,2c0,.7-.1,1.3-.1,2a76.5,76.5,0,0,0,153,0,13.405,13.405,0,0,0-.1-2A14.087,14.087,0,0,0,704.8,457.1Z" fill="#13161f"/>
          <circle id="circle105" cx="73" cy="73" r="73" transform="translate(555.3 380.1)" fill="#0f1015"/>
          <circle id="circle107" cx="51.5" cy="51.5" r="51.5" transform="translate(576.8 401.6)"/>
          <path id="path109" d="M631.8,225.1a6.568,6.568,0,0,0-6.5-5.6H374.7a6.481,6.481,0,0,0-6.5,5.6,14.768,14.768,0,0,0-.1,2.1V354.6a16.09,16.09,0,0,0,16.1,16.1H615.8a16.089,16.089,0,0,0,16.1-16.1V227.2A7.41,7.41,0,0,0,631.8,225.1Z" fill="#121212"/>
          <circle id="circle111" cx="94.3" cy="94.3" r="94.3" transform="translate(655 247.6)" fill="#080808"/>
          <g id="g123">
            <circle id="circle113" cx="94.3" cy="94.3" r="94.3" transform="translate(156.4 247.6)" fill="#080808"/>
            <path id="path115" d="M327.4,351.2l9.5-8.9a1.151,1.151,0,0,0,0-1.7l-9.5-8.9a1.115,1.115,0,0,0-1.9.8v17.8A1.147,1.147,0,0,0,327.4,351.2Z" fill="#1f1f1f"/>
            <path id="path117" d="M242,266.9h17.8a1.115,1.115,0,0,0,.8-1.9l-8.9-9.5a1.151,1.151,0,0,0-1.7,0l-8.9,9.5A1.171,1.171,0,0,0,242,266.9Z" fill="#1f1f1f"/>
            <path id="path119" d="M174.5,331.7l-9.5,8.9a1.151,1.151,0,0,0,0,1.7l9.5,8.9a1.115,1.115,0,0,0,1.9-.8V332.6A1.125,1.125,0,0,0,174.5,331.7Z" fill="#1f1f1f"/>
            <path id="path121" d="M259.8,415.9H242a1.115,1.115,0,0,0-.8,1.9l8.9,9.5a1.151,1.151,0,0,0,1.7,0l8.9-9.5A1.171,1.171,0,0,0,259.8,415.9Z" fill="#1f1f1f"/>
          </g>
        </g>
      </g>
    </g>
    <g id="g191">
      <g id="g138">
        <path id="path131" d="M202.2,641.6c-40.5-2.8-75.8-20.3-87.3-30.5-11.5-10.3-17.5-31.6-17.5-31.6-.4,15-.4,26.3-.4,26.3s4.5,53.4,36.2,74.9,56.7,14,56.7,14,33.1-8.2,57.8-41.9A192.079,192.079,0,0,0,261.8,629C261.7,629,242.6,644.3,202.2,641.6Z" fill="#e6e6e6" opacity="0.1"/>
        <path id="path134" d="M202.2,641.6c-40.5-2.8-75.8-20.3-87.3-30.5-11.5-10.3-17.5-31.6-17.5-31.6-.4,15-.4,26.3-.4,26.3s4.5,53.4,36.2,74.9,56.7,14,56.7,14,33.1-8.2,57.8-41.9A192.079,192.079,0,0,0,261.8,629C261.7,629,242.6,644.3,202.2,641.6Z" opacity="0.08"/>
        <path id="path136" d="M187,689.6c-12.5,1.8-31.3-2-45.1-7.7-13.6-5.7-24-16.4-24-16.4a63.118,63.118,0,0,0,15.3,15.2c31.7,21.5,56.7,14,56.7,14s11.7-2.9,26.3-12.3A168.531,168.531,0,0,1,187,689.6Z" opacity="0.22"/>
      </g>
      <g id="g147">
        <path id="path140" d="M797.8,641.6c40.5-2.8,75.8-20.3,87.3-30.5s17.5-31.5,17.5-31.5c.4,15,.4,26.3.4,26.3s-4.5,53.4-36.2,74.9-56.7,14-56.7,14-33.1-8.2-57.8-41.9a192.079,192.079,0,0,1-14.1-23.8C738.3,629,757.4,644.3,797.8,641.6Z" fill="#e6e6e6" opacity="0.1"/>
        <path id="path143" d="M797.8,641.6c40.5-2.8,75.8-20.3,87.3-30.5s17.5-31.5,17.5-31.5c.4,15,.4,26.3.4,26.3s-4.5,53.4-36.2,74.9-56.7,14-56.7,14-33.1-8.2-57.8-41.9a192.079,192.079,0,0,1-14.1-23.8C738.3,629,757.4,644.3,797.8,641.6Z" opacity="0.08"/>
        <path id="path145" d="M813,689.6c12.5,1.8,31.3-2,45.1-7.7,13.6-5.7,24-16.4,24-16.4a63.118,63.118,0,0,1-15.3,15.2c-31.7,21.5-56.7,14-56.7,14s-11.7-2.9-26.3-12.3A168.533,168.533,0,0,0,813,689.6Z" opacity="0.22"/>
      </g>
      <g id="g155">
        <g id="g153">
          <path id="path149" d="M337.5,240.6A12.5,12.5,0,0,1,350,253.1v18.3a12.5,12.5,0,0,1-25,0V253.1a12.5,12.5,0,0,1,12.5-12.5m0-1.7a14.255,14.255,0,0,0-14.2,14.2v18.3a14.2,14.2,0,0,0,28.4,0V253.1a14.19,14.19,0,0,0-14.2-14.2Z"/>
          <path id="path151" d="M337.5,240.6A12.5,12.5,0,0,0,325,253.1v18.3a12.5,12.5,0,0,0,25,0V253.1A12.5,12.5,0,0,0,337.5,240.6Z" fill="#10111a"/>
        </g>
      </g>
      <g id="g163">
        <g id="g161">
          <path id="path157" d="M662.5,240.6A12.5,12.5,0,0,1,675,253.1v18.3a12.5,12.5,0,0,1-12.5,12.5h0A12.5,12.5,0,0,1,650,271.4V253.1a12.5,12.5,0,0,1,12.5-12.5h0m0-1.7a14.255,14.255,0,0,0-14.2,14.2v18.3a14.2,14.2,0,0,0,28.4,0V253.1a14.19,14.19,0,0,0-14.2-14.2Z"/>
          <path id="path159" d="M662.5,240.6A12.5,12.5,0,0,0,650,253.1v18.3a12.5,12.5,0,0,0,25,0V253.1A12.5,12.5,0,0,0,662.5,240.6Z" fill="#10111a"/>
        </g>
      </g>
      <g id="g189">
        <g id="g169">
          <path id="path165" d="M238.2,344.3c1.4-2,1.2-2.9,1.2-2.9s.2-.9-1.2-2.9-15-13.6-15.7-14-28.5-2.2-31.4,1.3-2.6,15.6-2.6,15.6-.3,12.1,2.6,15.6,30.7,1.7,31.4,1.3S236.8,346.3,238.2,344.3Z" fill="#1a1a1a"/>
          <path id="path167" d="M238.2,344.3c1.4-2,1.2-2.9,1.2-2.9s.2-.9-1.2-2.9c-.9-1.3-6.9-6.6-11.2-10.3a27.841,27.841,0,0,0-3.4,13.2,26.733,26.733,0,0,0,3.4,13.2C231.3,350.9,237.3,345.6,238.2,344.3Z" opacity="0.25"/>
        </g>
        <g id="g175">
          <path id="path171" d="M248,328.7c2,1.4,2.9,1.2,2.9,1.2s.9.2,2.9-1.2,13.6-15,14-15.7,2.2-28.5-1.3-31.4-15.6-2.6-15.6-2.6-12.1-.3-15.6,2.6-1.7,30.7-1.3,31.4C234.5,313.7,246,327.3,248,328.7Z" fill="#1a1a1a"/>
          <path id="path173" d="M248,328.7c2,1.4,2.9,1.2,2.9,1.2s.9.2,2.9-1.2c1.3-.9,6.6-6.9,10.3-11.2a27.841,27.841,0,0,0-13.2-3.4,26.733,26.733,0,0,0-13.2,3.4C241.5,321.8,246.7,327.8,248,328.7Z" opacity="0.25"/>
        </g>
        <g id="g181">
          <path id="path177" d="M310.7,325.9c-2.9-3.5-30.7-1.7-31.4-1.3s-14.3,12-15.7,14-1.2,2.9-1.2,2.9-.2.9,1.2,2.9,15,13.6,15.7,14,28.5,2.2,31.4-1.3,2.6-15.6,2.6-15.6S313.6,329.4,310.7,325.9Z" fill="#1a1a1a"/>
          <path id="path179" d="M274.9,328.3c-4.3,3.7-10.3,9-11.2,10.3-1.4,2-1.2,2.9-1.2,2.9s-.2.9,1.2,2.9c.9,1.3,6.9,6.6,11.2,10.3a27.324,27.324,0,0,0,0-26.4Z" opacity="0.25"/>
        </g>
        <g id="g187">
          <path id="path183" d="M253.8,354.2c-2-1.4-2.9-1.2-2.9-1.2s-.9-.2-2.9,1.2-13.6,15-14,15.7-2.2,28.5,1.3,31.4,15.6,2.6,15.6,2.6,12.1.3,15.6-2.6,1.7-30.7,1.3-31.4C267.4,369.1,255.8,355.6,253.8,354.2Z" fill="#1a1a1a"/>
          <path id="path185" d="M253.8,354.2c-2-1.4-2.9-1.2-2.9-1.2s-.9-.2-2.9,1.2c-1.3.9-6.6,6.9-10.3,11.2a27.841,27.841,0,0,0,13.2,3.4,26.733,26.733,0,0,0,13.2-3.4C260.4,361.1,255.1,355.1,253.8,354.2Z" opacity="0.25"/>
        </g>
      </g>
    </g>
    <g id="g221">
      <g id="g207">
        <circle id="circle193" cx="4.1" cy="4.1" r="4.1" transform="translate(495.9 409.4)"/>
        <circle id="circle195" cx="4.1" cy="4.1" r="4.1" transform="translate(495.9 388.5)"/>
        <circle id="circle197" cx="4.1" cy="4.1" r="4.1" transform="translate(489 398.7)"/>
        <circle id="circle199" cx="4.1" cy="4.1" r="4.1" transform="translate(474.3 398.7)"/>
        <circle id="circle201" cx="4.1" cy="4.1" r="4.1" transform="translate(481.6 409.4)"/>
        <circle id="circle203" cx="4.1" cy="4.1" r="4.1" transform="translate(481.6 388.5)"/>
        <circle id="circle205" cx="4.1" cy="4.1" r="4.1" transform="translate(467.3 388.5)"/>
      </g>
      <g id="g219">
        <circle id="circle209" cx="4.1" cy="4.1" r="4.1" transform="translate(502.8 398.7)"/>
        <circle id="circle211" cx="4.1" cy="4.1" r="4.1" transform="translate(517.5 398.7)"/>
        <circle id="circle213" cx="4.1" cy="4.1" r="4.1" transform="translate(510.1 409.4)"/>
        <circle id="circle215" cx="4.1" cy="4.1" r="4.1" transform="translate(510.1 388.5)"/>
        <circle id="circle217" cx="4.1" cy="4.1" r="4.1" transform="translate(524.5 388.5)"/>
      </g>
    </g>
    <g id="g247" opacity="0.12">
      <path id="path223" d="M500,416.6a4.193,4.193,0,0,1-4.1-3.6c0,.2-.1.3-.1.5a4.1,4.1,0,0,0,8.2,0,.9.9,0,0,0-.1-.5A3.852,3.852,0,0,1,500,416.6Z" fill="#fff"/>
      <path id="path225" d="M500,396.7a4.055,4.055,0,0,0,4.1-4.1.9.9,0,0,0-.1-.5,4.116,4.116,0,0,1-4.1,3.6,4.193,4.193,0,0,1-4.1-3.6c0,.2-.1.3-.1.5A4.439,4.439,0,0,0,500,396.7Z" fill="#fff"/>
      <path id="path227" d="M497.2,402.8a.9.9,0,0,0-.1-.5,4.116,4.116,0,0,1-4.1,3.6,4.193,4.193,0,0,1-4.1-3.6c0,.2-.1.3-.1.5a4.055,4.055,0,0,0,4.1,4.1A4.165,4.165,0,0,0,497.2,402.8Z" fill="#fff"/>
      <path id="path229" d="M482.4,402.3a4.116,4.116,0,0,1-4.1,3.6,4.193,4.193,0,0,1-4.1-3.6c0,.2-.1.3-.1.5a4.1,4.1,0,1,0,8.2,0C482.5,402.6,482.5,402.5,482.4,402.3Z" fill="#fff"/>
      <path id="path231" d="M485.8,416.6a4.193,4.193,0,0,1-4.1-3.6c0,.2-.1.3-.1.5a4.1,4.1,0,1,0,8.2,0,.9.9,0,0,0-.1-.5A3.852,3.852,0,0,1,485.8,416.6Z" fill="#fff"/>
      <path id="path233" d="M485.8,396.7a4.055,4.055,0,0,0,4.1-4.1.9.9,0,0,0-.1-.5,4.116,4.116,0,0,1-4.1,3.6,4.193,4.193,0,0,1-4.1-3.6c0,.2-.1.3-.1.5A4.366,4.366,0,0,0,485.8,396.7Z" fill="#fff"/>
      <path id="path235" d="M475.6,392.6a.9.9,0,0,0-.1-.5,4.116,4.116,0,0,1-4.1,3.6,4.193,4.193,0,0,1-4.1-3.6c0,.2-.1.3-.1.5a4.055,4.055,0,0,0,4.1,4.1A4.229,4.229,0,0,0,475.6,392.6Z" fill="#fff"/>
      <path id="path237" d="M511,402.3a4.116,4.116,0,0,1-4.1,3.6,4.193,4.193,0,0,1-4.1-3.6c0,.2-.1.3-.1.5a4.1,4.1,0,1,0,8.2,0C511.1,402.6,511,402.5,511,402.3Z" fill="#fff"/>
      <path id="path239" d="M521.6,405.9a4.193,4.193,0,0,1-4.1-3.6c0,.2-.1.3-.1.5a4.1,4.1,0,1,0,8.2,0,.9.9,0,0,0-.1-.5A3.72,3.72,0,0,1,521.6,405.9Z" fill="#fff"/>
      <path id="path241" d="M514.3,416.6a4.193,4.193,0,0,1-4.1-3.6c0,.2-.1.3-.1.5a4.1,4.1,0,1,0,8.2,0,.9.9,0,0,0-.1-.5A3.852,3.852,0,0,1,514.3,416.6Z" fill="#fff"/>
      <path id="path243" d="M514.3,396.7a4.055,4.055,0,0,0,4.1-4.1.9.9,0,0,0-.1-.5,4.116,4.116,0,0,1-4.1,3.6,4.193,4.193,0,0,1-4.1-3.6c0,.2-.1.3-.1.5A4.366,4.366,0,0,0,514.3,396.7Z" fill="#fff"/>
      <path id="path245" d="M528.6,395.7a4.193,4.193,0,0,1-4.1-3.6c0,.2-.1.3-.1.5a4.1,4.1,0,1,0,8.2,0,.9.9,0,0,0-.1-.5A3.852,3.852,0,0,1,528.6,395.7Z" fill="#fff"/>
    </g>
    <path id="path249" d="M533.6,518.1H465.7c-2.8,0-4.6.6-4.6-2.2h0a5.015,5.015,0,0,1,5-5H534a5.015,5.015,0,0,1,5,5h0C539.1,518.6,536.4,518.1,533.6,518.1Z" fill="#0b0b0f"/>
    <path id="path251" d="M505.3,515.9H468.8a.9.9,0,0,1-.9-.9h0a2.006,2.006,0,0,1,2-2h34.2a2.006,2.006,0,0,1,2,2h0A.765.765,0,0,1,505.3,515.9Z"/>
    <path id="path253" d="M527.5,516.7h-4.2a1.752,1.752,0,0,1-1.7-1.7h0a2.8,2.8,0,0,1,2.8-2.8h1.9a2.8,2.8,0,0,1,2.8,2.8h0A1.5,1.5,0,0,1,527.5,516.7Z"/>
    <g id="g264">
      <g id="g262">
        <path id="path255" d="M627.4,221.4a1.9,1.9,0,0,0-1.9-1.9H374.4a1.9,1.9,0,0,0-1.9,1.9V350.6a15.62,15.62,0,0,0,15.6,15.6H611.9a15.62,15.62,0,0,0,15.6-15.6V227.5Z" fill="#080808"/>
        <g id="g260" opacity="0.12">
          <path id="path258" d="M372.5,350.6a15.62,15.62,0,0,0,15.6,15.6H611.9a15.62,15.62,0,0,0,15.6-15.6V244.1h-255Z"/>
        </g>
      </g>
    </g>
    <g id="g308">
      <g id="g306">
        <g id="g274">
          <g id="g270">
            <path id="path266" d="M806.9,368.1a26.3,26.3,0,1,1,26.3-26.3A26.332,26.332,0,0,1,806.9,368.1Z" fill="#1a1a1a"/>
            <path id="path268" d="M806.9,316.6a25.25,25.25,0,1,1-25.3,25.2,25.329,25.329,0,0,1,25.3-25.2m0-2a27.3,27.3,0,1,0,27.3,27.3,27.335,27.335,0,0,0-27.3-27.3Z" fill="#0f0f0f"/>
          </g>
          <path id="path272" d="M806.9,323a18.9,18.9,0,1,0,18.9,18.9A18.949,18.949,0,0,0,806.9,323Zm0,34.9a16,16,0,1,1,16-16A15.983,15.983,0,0,1,806.9,357.9Z" fill="#f66"/>
        </g>
        <g id="g284">
          <g id="g280">
            <path id="path276" d="M749.3,425.7a26.3,26.3,0,1,1,26.3-26.3A26.332,26.332,0,0,1,749.3,425.7Z" fill="#1a1a1a"/>
            <path id="path278" d="M749.3,374.2A25.3,25.3,0,1,1,724,399.5a25.329,25.329,0,0,1,25.3-25.3m0-2a27.3,27.3,0,1,0,27.3,27.3,27.335,27.335,0,0,0-27.3-27.3Z" fill="#0f0f0f"/>
          </g>
          <path id="polygon282" d="M763.7,387.1l-2-2-12.4,12.4L737,385.1l-2,2,12.3,12.4L735,411.8l2,2,12.3-12.3,12.4,12.3,2-2-12.4-12.3Z" fill="#7cb2e8"/>
        </g>
        <g id="g294">
          <g id="g290">
            <path id="path286" d="M691.8,368.1a26.3,26.3,0,1,1,26.3-26.3A26.332,26.332,0,0,1,691.8,368.1Z" fill="#1a1a1a"/>
            <path id="path288" d="M691.7,316.6a25.25,25.25,0,1,1-25.3,25.2,25.329,25.329,0,0,1,25.3-25.2m0-2A27.3,27.3,0,1,0,719,341.9a27.335,27.335,0,0,0-27.3-27.3Z" fill="#0f0f0f"/>
          </g>
          <path id="path292" d="M703.3,327.5H677.5v28.6h28.6V327.5Zm0,25.9h-23v-23h23Z" fill="#ff69f8"/>
        </g>
        <g id="g304">
          <g id="g300">
            <path id="path296" d="M749.3,310.6a26.3,26.3,0,1,1,26.3-26.3A26.332,26.332,0,0,1,749.3,310.6Z" fill="#1a1a1a"/>
            <path id="path298" d="M749.3,259.1A25.3,25.3,0,1,1,724,284.4a25.329,25.329,0,0,1,25.3-25.3m0-2a27.3,27.3,0,1,0,27.3,27.3,27.335,27.335,0,0,0-27.3-27.3Z" fill="#0f0f0f"/>
          </g>
          <path id="path302" d="M765.3,292.3l-16-27.6-16,27.6-1.6,2.8h35.2Zm-16,0H736.6l12.7-21.9L762,292.3Z" fill="#40e2a0"/>
        </g>
      </g>
    </g>
    <g id="g320">
      <circle id="circle310" cx="20.2" cy="20.2" r="20.2" transform="translate(479.8 438.9)" fill="#050505" stroke="#000" stroke-miterlimit="10" stroke-width="2"/>
      <g id="g318">
        <path id="path312" d="M501.1,465.7V452.9a1.327,1.327,0,0,1,.3-1,.574.574,0,0,1,.7-.2c.6.2.9.7.9,1.7v6.9a4.552,4.552,0,0,0,2.1.5,2.767,2.767,0,0,0,1.6-.5c1-.7,1.5-1.9,1.5-3.7a6.492,6.492,0,0,0-1.2-4.3,8.79,8.79,0,0,0-4.1-2.6c-1.3-.4-2.5-.8-3.6-1.1s-2-.5-2.9-.7v12.2h0v2.7h0v1.7h0V467h0v1.5l4.7,1.5v-3.6h0Z" fill="#f2f2f2"/>
        <path id="path314" d="M496,464.7l-1.7.6-.9.4-1.6.3-1.5-.2c-.3-.2-.4-.4-.2-.6.1-.1.2-.1.3-.2s.3-.1.4-.2l1.1-.4,4.1-1.5v-2.7l-1.7.5-5.5,2-1,.4c-1.5.6-2.2,1.2-2.2,1.8.1.8,1,1.5,2.7,1.9a15.21,15.21,0,0,0,4.3.5,20.2,20.2,0,0,0,3.3-.3v-2.3h.1Z" fill="#f2f2f2"/>
        <path id="path316" d="M511.8,462.4a12.885,12.885,0,0,0-2.5-.6,10.478,10.478,0,0,0-2.5-.1,26.609,26.609,0,0,0-2.8.3,15.255,15.255,0,0,0-2.6.8v2.8l3.9-1.4,1.6-.5,1.1-.3h1.4c.3.1.6.2.7.4,0,.2-.2.4-.8.6l-1.4.5-6.5,2.4V470l3.5-1.3,6.4-2.3.7-.4c1.5-.5,2.2-1.2,2.2-1.9C514.2,463.5,513.4,462.9,511.8,462.4Z" fill="#f2f2f2"/>
      </g>
    </g>
    <g id="g338">
      <g id="g328">
        <g id="g326">
          <path id="path322" d="M794.2,207a2.144,2.144,0,0,0-1.1-1.9c-4.5-2.9-23.4-13.6-51.5-13.6-26.9,0-41.1,5.9-45.1,8a2.2,2.2,0,0,0-1.2,2s9.8-2.9,47.5-2.9S794.2,207,794.2,207Z" fill="#0a0a0a"/>
          <path id="path324" d="M794.1,213.9h0V207s-13.7-8.4-51.4-8.4c-37.8,0-47.5,2.9-47.5,2.9v11h0c7.7-1.3,21.2-2.6,44.1-2.6C767.8,210,785.2,212.3,794.1,213.9Z" fill="#121212"/>
        </g>
      </g>
      <g id="g336">
        <g id="g334">
          <path id="path330" d="M205.8,207a2.144,2.144,0,0,1,1.1-1.9c4.5-2.9,23.4-13.6,51.5-13.6,26.9,0,41.1,5.9,45.1,8a2.2,2.2,0,0,1,1.2,2s-9.8-2.9-47.5-2.9S205.8,207,205.8,207Z" fill="#0a0a0a"/>
          <path id="path332" d="M205.9,213.9h0V207s13.7-8.4,51.4-8.4c37.8,0,47.5,2.9,47.5,2.9v11h0c-7.7-1.3-21.2-2.6-44.1-2.6C232.2,210,214.8,212.3,205.9,213.9Z" fill="#121212"/>
        </g>
      </g>
    </g>
    <g id="g376">
      <g id="g356">
        <g id="g354">
          <g id="g344">
            <path id="path340" d="M794.2,187.9s-32.7-3.2-50.6-3.2-48.4,2.4-48.4,2.4,3.1-44.7,4.8-52c1.6-7.3,7.7-21.3,16.9-27.9s11.9-10.1,22.7-10.1,25.4,6.4,34.6,21.4C783.5,133.5,794.2,187.9,794.2,187.9Z" fill="#121212"/>
            <path id="path342" d="M695.7,180.3s26.1-4.4,49-4.4c22.8,0,47.9,4.4,47.9,4.4,1,4.7,1.6,7.6,1.6,7.6s-32.7-3.2-50.6-3.2-48.4,2.4-48.4,2.4S695.4,184.4,695.7,180.3Z" fill="#0a0a0a"/>
          </g>
          <g id="g352" opacity="0.08">
            <g id="g348">
              <path id="path346" d="M745.7,162.8c-2.1,1.7-3.2,2.6-3.2,2.6a6.705,6.705,0,0,0-2,4.5h9.8v-2.6H744a6.705,6.705,0,0,1,2.1-1.9,12.467,12.467,0,0,0,2.7-2.1,4.771,4.771,0,0,0,1.3-3.3,4.223,4.223,0,0,0-1.4-3.3,5.13,5.13,0,0,0-3.5-1.2c-3.1,0-4.7,1.7-4.7,5h2.7q0-2.7,2.1-2.7a1.827,1.827,0,0,1,2,2.1C747.5,161,746.9,161.9,745.7,162.8Z" fill="#fff"/>
            </g>
            <path id="path350" d="M728.1,164.3h3c1.5,0,2.3.6,2.4,1.9.1,1.2.2,2.5.3,3.8h3.3v-.4c-.5-.2-.7-.7-.7-1.5a2.815,2.815,0,0,1,.1-.8v-.7a3.564,3.564,0,0,0-1.8-3.5,3.25,3.25,0,0,0,2.2-3.4,3.542,3.542,0,0,0-1.3-3,4.722,4.722,0,0,0-3.2-1h-7.3V170h3Zm0-6.2h3.7c1.4,0,2.1.6,2.1,1.9s-.8,1.9-2.3,1.9h-3.5Z" fill="#fff"/>
          </g>
        </g>
      </g>
      <g id="g374">
        <g id="g372">
          <g id="g362">
            <path id="path358" d="M205.8,187.9s32.7-3.2,50.6-3.2,48.3,2.4,48.3,2.4-3.1-44.7-4.8-52c-1.6-7.3-7.7-21.3-16.9-27.9-9.1-6.7-11.8-10.1-22.6-10.1s-25.4,6.4-34.6,21.4S205.8,187.9,205.8,187.9Z" fill="#121212"/>
            <path id="path360" d="M304.3,180.3s-26.1-4.4-49-4.4c-22.8,0-47.9,4.4-47.9,4.4-1,4.7-1.6,7.6-1.6,7.6s32.7-3.2,50.6-3.2,48.3,2.4,48.3,2.4S304.6,184.4,304.3,180.3Z" fill="#0a0a0a"/>
          </g>
          <g id="g370" opacity="0.08">
            <g id="g366">
              <path id="path364" d="M270.3,162.8c-2.1,1.7-3.2,2.6-3.2,2.6a6.705,6.705,0,0,0-2,4.5h9.8v-2.6h-6.2a6.705,6.705,0,0,1,2.1-1.9,12.468,12.468,0,0,0,2.7-2.1,4.771,4.771,0,0,0,1.3-3.3,4.223,4.223,0,0,0-1.4-3.3,5.13,5.13,0,0,0-3.5-1.2c-3.1,0-4.7,1.7-4.7,5h2.7q0-2.7,2.1-2.7a1.827,1.827,0,0,1,2,2.1C272.1,161,271.5,161.9,270.3,162.8Z" fill="#fff"/>
            </g>
            <path id="polygon368" d="M261.8,167.3h-7V155.6h-3.1v14.3h10.1Z" fill="#fff"/>
          </g>
        </g>
      </g>
    </g>
    <g id="g406">
      <g id="g392">
        <path id="path378" d="M644.6,231.7a4.112,4.112,0,0,1-8.2,0,3.815,3.815,0,0,1,4.1-3.8A3.761,3.761,0,0,1,644.6,231.7Zm-6.7,0a2.487,2.487,0,0,0,2.6,2.7,2.537,2.537,0,0,0,2.6-2.7,2.6,2.6,0,1,0-5.2,0Z" fill="#ccc"/>
        <path id="path380" d="M645.9,228.1h3.8c2.4,0,2.9,1.3,2.9,2.2s-.5,2.2-2.9,2.2h-2.3v2.8h-1.5Zm1.5,3.4h2.2c.7,0,1.5-.3,1.5-1.2s-.7-1.2-1.5-1.2h-2.2Z" fill="#ccc"/>
        <path id="path382" d="M653.1,228.1H660v1.1h-2.7v6.1h-1.5v-6.2h-2.7Z" fill="#ccc"/>
        <path id="path384" d="M661.1,228.1h1.5v7.2h-1.5Z" fill="#ccc"/>
        <path id="path386" d="M672.1,231.7a4.112,4.112,0,0,1-8.2,0,3.815,3.815,0,0,1,4.1-3.8A3.761,3.761,0,0,1,672.1,231.7Zm-6.7,0a2.487,2.487,0,0,0,2.6,2.7,2.537,2.537,0,0,0,2.6-2.7,2.6,2.6,0,1,0-5.2,0Z" fill="#ccc"/>
        <path id="path388" d="M673.5,228.1h1.6l3.9,5.3h0v-5.3h1.4v7.2h-1.6l-3.9-5.3h0v5.3h-1.4Z" fill="#ccc"/>
        <path id="path390" d="M683.2,232.9c0,1.1,1,1.5,2.2,1.5,1.3,0,1.8-.6,1.8-1.1a.887.887,0,0,0-.7-.9c-.6-.2-1.4-.3-2.6-.6-1.5-.3-1.9-1.1-1.9-1.8,0-1.5,1.6-2.1,3.1-2.1,1.8,0,3.3.8,3.3,2.3h-1.5c-.1-.9-.8-1.3-1.8-1.3-.7,0-1.6.2-1.6.9,0,.5.4.8,1,.9a21.454,21.454,0,0,1,2.5.6,2.073,2.073,0,0,1,1.7,1.8c0,1.6-1.7,2.3-3.4,2.3-2,0-3.5-.8-3.6-2.6h1.5Z" fill="#ccc"/>
      </g>
      <g id="g404">
        <path id="path394" d="M319.2,232.9c0,1.1,1,1.5,2.2,1.5,1.3,0,1.8-.6,1.8-1.1a.887.887,0,0,0-.7-.9c-.6-.2-1.4-.3-2.6-.6-1.5-.3-1.9-1.1-1.9-1.8,0-1.5,1.6-2.1,3.1-2.1,1.8,0,3.3.8,3.3,2.3h-1.5c-.1-.9-.8-1.3-1.8-1.3-.7,0-1.6.2-1.6.9,0,.5.4.8,1,.9a21.453,21.453,0,0,1,2.5.6,2.073,2.073,0,0,1,1.7,1.8c0,1.6-1.7,2.3-3.4,2.3-2,0-3.5-.8-3.6-2.6h1.5Z" fill="#ccc"/>
        <path id="path396" d="M325.9,228.1h1.5V231h3.9v-2.9h1.5v7.2h-1.5v-3.2h-3.9v3.2h-1.5Z" fill="#ccc"/>
        <path id="path398" d="M336.9,228.1h1.6l3.3,7.2h-1.6l-.8-1.9H336l-.8,1.9h-1.5Zm-.5,4.3H339l-1.3-3.1h0Z" fill="#ccc"/>
        <path id="path400" d="M342.6,228.1h4.1c1.9,0,2.8.7,2.8,1.9a1.769,1.769,0,0,1-1.4,1.8h0a1.441,1.441,0,0,1,1.3,1.5c0,.8.1,1.6.5,1.9h-1.6a1.978,1.978,0,0,1-.2-1.1c0-1.3-.3-1.9-1.7-1.9h-2.2v3h-1.5v-7.1h-.1Zm1.5,3.2h2.5c1,0,1.5-.4,1.5-1.1,0-.9-.7-1.1-1.5-1.1h-2.4v2.2h-.1Z" fill="#ccc"/>
        <path id="path402" d="M351.1,228.1h6.2v1.1h-4.7v1.9h4.3v1h-4.3v2.1h4.7v1.1h-6.2v-7.2Z" fill="#ccc"/>
      </g>
    </g>
  </g>
</svg>
