<svg xmlns="http://www.w3.org/2000/svg" width="284.5" height="94" viewBox="0 0 284.5 94">
  <g id="sticks" transform="translate(814.5 -494)">
    <g id="g12">
      <g id="g8">
        <g id="path4">
          <path d="M -769 585.5 C -775.0001831054688 585.5 -780.8235473632813 584.322265625 -786.3084716796875 581.9994506835938 C -791.606201171875 579.7559814453125 -796.3659057617188 576.5448608398438 -800.4553833007813 572.4553833007813 C -804.5448608398438 568.3659057617188 -807.7559814453125 563.606201171875 -809.9994506835938 558.3084716796875 C -812.322265625 552.8235473632813 -813.5 547.0001831054688 -813.5 541 C -813.5 534.9998168945313 -812.322265625 529.1764526367188 -809.9994506835938 523.6915283203125 C -807.7559814453125 518.393798828125 -804.5448608398438 513.6340942382813 -800.4553833007813 509.5446166992188 C -796.3659057617188 505.4551391601563 -791.606201171875 502.2440490722656 -786.3084716796875 500.0005187988281 C -780.8235473632813 497.6777648925781 -775.0001831054688 496.5 -769 496.5 C -762.9998168945313 496.5 -757.1764526367188 497.6777648925781 -751.6915283203125 500.0005187988281 C -746.393798828125 502.2440490722656 -741.6340942382813 505.4551391601563 -737.5446166992188 509.5446166992188 C -733.4551391601563 513.6340942382813 -730.2440185546875 518.393798828125 -728.0005493164063 523.6915283203125 C -725.677734375 529.1764526367188 -724.5 534.9998168945313 -724.5 541 C -724.5 547.0001831054688 -725.677734375 552.8235473632813 -728.0005493164063 558.3084716796875 C -730.2440185546875 563.606201171875 -733.4551391601563 568.3659057617188 -737.5446166992188 572.4553833007813 C -741.6340942382813 576.5448608398438 -746.393798828125 579.7559814453125 -751.6915283203125 581.9994506835938 C -757.1764526367188 584.322265625 -762.9998168945313 585.5 -769 585.5 Z" stroke="none"/>
          <path d="M -769 584.5 C -745.0140380859375 584.5 -725.5 564.9859619140625 -725.5 541 C -725.5 517.0140380859375 -745.0140380859375 497.5 -769 497.5 C -792.9859619140625 497.5 -812.5 517.0140380859375 -812.5 541 C -812.5 564.9859619140625 -792.9859619140625 584.5 -769 584.5 M -769 586.5 C -794.0999755859375 586.5 -814.5 566.0999755859375 -814.5 541 C -814.5 515.9000244140625 -794.0999755859375 495.5 -769 495.5 C -743.9000244140625 495.5 -723.5 515.9000244140625 -723.5 541 C -723.5 566.0999755859375 -743.9000244140625 586.5 -769 586.5 Z" stroke="none" fill="#fff"/>
        </g>
      </g>
      <g id="circle10" transform="translate(-796.3 513.7)" stroke="#fff" stroke-width="2">
        <circle cx="27.3" cy="27.3" r="27.3" stroke="none"/>
        <circle cx="27.3" cy="27.3" r="26.3" fill="none"/>
      </g>
    </g>
    <g id="g28">
      <g id="g18">
        <path id="path14" d="M-577,586.5A45.537,45.537,0,0,1-622.5,541,45.537,45.537,0,0,1-577,495.5,45.537,45.537,0,0,1-531.5,541,45.537,45.537,0,0,1-577,586.5Z" fill="#fff"/>
        <path id="path16" d="M-577,497a44,44,0,0,1,44,44,44,44,0,0,1-44,44,44,44,0,0,1-44-44,44,44,0,0,1,44-44m0-3a46.946,46.946,0,0,0-47,47,46.946,46.946,0,0,0,47,47,46.946,46.946,0,0,0,47-47,46.946,46.946,0,0,0-47-47Z" fill="#fff"/>
      </g>
      <circle id="circle20" cx="27.3" cy="27.3" r="27.3" transform="translate(-604.3 513.7)" fill="#fff"/>
      <g id="g26">
        <path id="path22" d="M-597.3,527.5h12.6c5.8,0,8.7,2.7,8.7,7.1,0,5.1-3.5,6.4-4.4,6.7v.1c1.6.2,3.9,1.4,3.9,5.6,0,3.1.4,5.9,1.4,7h-5a7.359,7.359,0,0,1-.7-3.9c0-4.8-1-7-5.3-7h-6.8V554h-4.6V527.5Zm4.6,12.1h7.6q4.5,0,4.5-4.2c0-3.4-2.2-4-4.6-4h-7.5Z"/>
        <path id="path24" d="M-565.7,538.8c2.8.1,5.7-.9,5.7-4.1a3.709,3.709,0,0,0-4-3.7c-2.9,0-4.4,2.6-4.3,5.3h-4.2c.2-5,3.4-8.8,8.6-8.8,4,0,8.2,2.3,8.2,6.9,0,2.6-1.1,4.7-3.7,5.5v.1c3,.6,4.7,3.1,4.7,6.5,0,4.9-4.3,7.9-9.2,7.9-6,0-9-3.6-9.1-9h4.2c-.1,3.1,1.6,5.5,4.9,5.5,2.8,0,5-1.7,5-4.6,0-4-3.4-4.5-6.8-4.4v-3.1Z"/>
      </g>
    </g>
    <g id="g44">
      <g id="g34">
        <path id="path30" d="M-673,586.5A45.537,45.537,0,0,1-718.5,541,45.537,45.537,0,0,1-673,495.5,45.537,45.537,0,0,1-627.5,541,45.537,45.537,0,0,1-673,586.5Z" fill="#fff"/>
        <path id="path32" d="M-673,497a44,44,0,0,1,44,44,44,44,0,0,1-44,44,44,44,0,0,1-44-44,44,44,0,0,1,44-44m0-3a46.946,46.946,0,0,0-47,47,46.946,46.946,0,0,0,47,47,46.946,46.946,0,0,0,47-47,46.946,46.946,0,0,0-47-47Z" fill="#fff"/>
      </g>
      <circle id="circle36" cx="27.3" cy="27.3" r="27.3" transform="translate(-700.3 513.7)" fill="#fff"/>
      <g id="g42">
        <path id="path38" d="M-690.9,527.5h4.6v22.4h13.4v4h-18Z"/>
        <path id="path40" d="M-664.1,538.8c2.8.1,5.7-.9,5.7-4.1a3.709,3.709,0,0,0-4-3.7c-2.9,0-4.4,2.6-4.3,5.3h-4.2c.2-5,3.4-8.8,8.6-8.8,4,0,8.2,2.3,8.2,6.9,0,2.6-1.1,4.7-3.7,5.5v.1c3,.6,4.7,3.1,4.7,6.5,0,4.9-4.3,7.9-9.2,7.9-6,0-9-3.6-9.1-9h4.2c-.1,3.1,1.6,5.5,4.9,5.5,2.8,0,5-1.7,5-4.6,0-4-3.4-4.5-6.8-4.4v-3.1Z"/>
      </g>
    </g>
  </g>
</svg>
